<svg width="800" height="800" viewBox="0 0 800 800" fill="none" xmlns="http://www.w3.org/2000/svg">
<path d="M535.308 654.263C555.567 626.544 567.525 592.375 567.525 555.413C567.525 462.794 492.442 387.712 399.824 387.712C307.205 387.712 232.123 462.794 232.123 555.413C232.123 595.038 245.867 631.454 268.847 660.154C245.885 641.467 224.114 615.339 206.989 578.871C193.95 551.161 157.206 448.855 252.03 315.642C356.611 172.034 359.342 51.8275 356.328 9.88448C355.874 3.56902 363.064 -0.334517 368.024 3.54901C381.725 14.2737 393.666 26.8502 403.872 40.3092C443.117 92.0644 460.918 155.755 460.918 217.626C460.918 254.789 464.738 285.306 471.289 302.95C487.691 347.124 516.508 327.523 511.769 250.281C511.37 243.777 518.935 239.973 523.799 244.265C540.061 258.609 568.165 292.013 591.027 363.599C608.807 420.082 612.363 464.841 609.992 496.812C605.219 574.47 572.59 623.453 535.308 654.263Z" fill="url(#paint0_linear_405_140)"/>
<path fill-rule="evenodd" clip-rule="evenodd" d="M433.352 754.933C517.101 647.079 536.113 622.596 536.113 555.413C536.113 479.995 474.974 418.856 399.556 418.856C324.138 418.856 263 479.995 263 555.413C263 622.45 279.09 643.187 364.27 752.969C374.918 766.693 386.645 781.808 399.556 798.579C411.85 782.623 423.087 768.152 433.352 754.933ZM399.556 608.119C437.927 608.119 469.032 577.013 469.032 538.643C469.032 500.272 437.927 469.166 399.556 469.166C361.186 469.166 330.08 500.272 330.08 538.643C330.08 577.013 361.186 608.119 399.556 608.119Z" fill="url(#paint1_linear_405_140)"/>
<defs>
<linearGradient id="paint0_linear_405_140" x1="399.824" y1="2" x2="399.824" y2="798.579" gradientUnits="userSpaceOnUse">
<stop stop-color="#FF9058"/>
<stop offset="1" stop-color="#F38B88"/>
</linearGradient>
<linearGradient id="paint1_linear_405_140" x1="399.824" y1="2" x2="399.824" y2="798.579" gradientUnits="userSpaceOnUse">
<stop stop-color="#FF9058"/>
<stop offset="1" stop-color="#F38B88"/>
</linearGradient>
</defs>
</svg>
