<svg xmlns="http://www.w3.org/2000/svg" viewBox="0 0 113.39 113.39"><defs><style>.cls-1{fill:#f28e5b;}</style></defs><title>Официальные</title><g id="Слой_2" data-name="Слой 2"><g id="Слой_1-2" data-name="Слой 1"><rect class="cls-1" x="35.96" y="69.5" width="21.69" height="3.8" rx="0.95"/><rect class="cls-1" x="35.98" y="77.41" width="18.34" height="3.84" rx="0.95"/><rect class="cls-1" x="35.97" y="61.55" width="27.62" height="3.86" rx="0.95"/><path class="cls-1" d="M56.69,0a56.7,56.7,0,1,0,56.7,56.69A56.69,56.69,0,0,0,56.69,0ZM86.36,55.83c-.29,2-1.12,3.81-1.52,5.75-.63,3.1-1.13,6.23-1.65,9.35-.07.4-.17.55-.64.52s-1,0-1.47,0c-1.58,0-3.17,0-4.75,0-.52,0-.67-.18-.63-1a22.68,22.68,0,0,0-2.26-11.7c-2.29-4.48-.47-9.3,3.73-10.72A7,7,0,0,1,86.36,55.83Zm-20.73-31a.72.72,0,0,1,1.21-.54l0,0c4.05,4.08,8.13,8.14,12.18,12.22h0a.72.72,0,0,1-.56,1.18H68a2.38,2.38,0,0,1-2.38-2.38Zm-2,60.24s0,.07.11.19h.87a1,1,0,0,1,.95,1v4a1,1,0,0,1-.95,1H28.94a1,1,0,0,1-1-1V46.42a13.78,13.78,0,0,1-6.85-12.57c.37-8.3,8.14-14.14,16.38-13a13,13,0,0,1,7,3.1H60.63a1,1,0,0,1,1,1V39.62a2.12,2.12,0,0,0,2.11,2.11H78.45a1,1,0,0,1,1,1v0a1,1,0,0,1-.93,1,10,10,0,0,0-1.24.18,11,11,0,0,0-8.44,13.48c.62,2.59,1.44,5.13,2,7.72.46,2,.7,4.12,1,6.25l-.71,0A8.1,8.1,0,0,0,63.68,79C63.59,81,63.66,83.05,63.64,85.09Zm26.54-1a.82.82,0,0,0-.82.82V90a1.18,1.18,0,0,1-1.18,1.18H70.47a1,1,0,0,1-1-1V85.06a1,1,0,0,0-1-1,1,1,0,0,1-1-.93,28.3,28.3,0,0,1,0-3.69c.26-2.48,1.62-4.11,3.38-4.12q8.4-.08,16.82,0c2.07,0,3.47,2.22,3.48,5.23V83A1.16,1.16,0,0,1,90.18,84.11Z"/><rect class="cls-1" x="35.96" y="53.67" width="27.62" height="3.86" rx="0.95"/><path class="cls-1" d="M46.19,33.33A11.34,11.34,0,1,0,33.75,45.77,11.37,11.37,0,0,0,46.19,33.33Zm-4.88-.84L34.83,39a1.77,1.77,0,0,1-2.49,0l-.05-.06,0,0-3.8-4.08A1.76,1.76,0,1,1,31,32.42l2.59,2.78,5.15-5.15a1.8,1.8,0,0,1,2.06-.39A1.77,1.77,0,0,1,41.31,32.49Z"/></g></g></svg>