<svg xmlns="http://www.w3.org/2000/svg" viewBox="0 0 113.39 113.39"><defs><style>.cls-1{fill:#f28e5b;}.cls-2{fill:#fff;}</style></defs><title>Развлечения</title><g id="Слой_2" data-name="Слой 2"><g id="Слой_1-2" data-name="Слой 1"><path class="cls-1" d="M75.16,38.27A2,2,0,0,0,73,38a5.38,5.38,0,0,1-2.09.27H40.75c-.73,0-1.46-.22-2.2-.24a2.06,2.06,0,0,0-1.1.26A34.39,34.39,0,0,0,23.08,58.12c-5.3,19,10.17,44.7,33.2,43.4,24.47-1.38,31-17.81,33-25.51C93.14,61.59,87.35,46.13,75.16,38.27Z"/><path class="cls-1" d="M40.61,35.14H71.09a4.15,4.15,0,0,0,.61,0,2,2,0,0,0,1.88-1.91A1.93,1.93,0,0,0,72,31c-.42-.1-2.67-.11-3.11-.12-.27,0-.19-6-.32-7.43-.43-4.57-3.43-7.77-8-8.14a76.59,76.59,0,0,0-9.34,0,8.31,8.31,0,0,0-5.64,2.67C42.81,20.75,44.09,30.85,43,30.87c-2.07,0-.34,0-2.4,0-1.6,0-2.48.84-2.46,2.2S39,35.14,40.61,35.14Z"/><path class="cls-1" d="M56.69,0a56.7,56.7,0,1,0,56.7,56.69A56.69,56.69,0,0,0,56.69,0ZM94.32,71.76c-.3.06-.59.14-.94.23-.17,15.69-14,33.34-36.93,33.34-22,0-36.27-18.41-36.91-33.34-.5-.11-1-.21-1.53-.34a14.06,14.06,0,0,1-9.24-19,1.11,1.11,0,0,0-.25-1.48,13.47,13.47,0,0,1-3.73-7.28,1.75,1.75,0,0,0-.2-.44V39.6c.18-.68.34-1.37.54-2.05a13.89,13.89,0,0,1,21.83-7,1.17,1.17,0,0,0,1.56.12A14.46,14.46,0,0,1,36.13,29a4.62,4.62,0,0,0,1.59-.41c.81-.29,1.61-.63,2.48-1,.08-1.69.07-3.52.27-5.33A11.74,11.74,0,0,1,51.75,12.16q4.3,0,8.61,0a11.73,11.73,0,0,1,11.27,9.92c.24,1.87.21,3.77.29,5.46,1.06.51,2,1,3,1.45a1.52,1.52,0,0,0,.73.18,13.63,13.63,0,0,1,9,1.67c.49.29.76.13,1.13-.18A13.86,13.86,0,0,1,108,38.35a13.48,13.48,0,0,1-3.56,12.83,1.12,1.12,0,0,0-.28,1.47A14,14,0,0,1,94.32,71.76Z"/><path class="cls-2" d="M57.71,96.14c-9.52-.28-16.83-3.16-22.87-9.07a7.22,7.22,0,0,1,4.4-12.42,6.62,6.62,0,0,1,5.47,1.95,16.37,16.37,0,0,0,13.65,4.9,15.7,15.7,0,0,0,10-4.65,7,7,0,0,1,7.08-1.92A7.15,7.15,0,0,1,78.53,87a29.78,29.78,0,0,1-14.22,8C61.8,95.67,59.19,95.91,57.71,96.14Zm-2.87-3.2c9.2,0,16.23-2.88,21.37-7.94a4.12,4.12,0,1,0-5.74-5.87,19.82,19.82,0,0,1-27.58,0A4.19,4.19,0,0,0,36.82,79a4.13,4.13,0,0,0,.37,6C42.65,90.25,49.17,92.85,54.84,92.94Z"/><path class="cls-2" d="M56.76,57.56A9.44,9.44,0,1,0,66.07,67,9.46,9.46,0,0,0,56.76,57.56Z"/><path class="cls-1" d="M54.84,92.94c-5.67-.09-12.19-2.69-17.65-7.9a4.13,4.13,0,0,1-.37-6,4.19,4.19,0,0,1,6.07.15,19.82,19.82,0,0,0,27.58,0A4.12,4.12,0,1,1,76.21,85C71.07,90.06,64,92.92,54.84,92.94Zm2.68-2.54c1.17-.17,3.3-.35,5.36-.82a23.13,23.13,0,0,0,11.61-6.49,1.51,1.51,0,0,0-.63-2.67,2.55,2.55,0,0,0-1.75.71c-7.22,6.5-15.38,7.67-24.32,4.32A18.86,18.86,0,0,1,41.1,81c-1.09-1.07-2.52-.84-2.75.49A2.31,2.31,0,0,0,39,83.2C43.84,88.05,49.8,90.19,57.52,90.4Z"/><path class="cls-2" d="M57.52,90.4C49.8,90.19,43.84,88.05,39,83.2a2.31,2.31,0,0,1-.65-1.74C38.58,80.13,40,79.9,41.1,81a18.86,18.86,0,0,0,6.69,4.48c8.94,3.35,17.1,2.18,24.32-4.32a2.55,2.55,0,0,1,1.75-.71,1.51,1.51,0,0,1,.63,2.67,23.13,23.13,0,0,1-11.61,6.49C60.82,90.05,58.69,90.23,57.52,90.4Z"/><circle class="cls-2" cx="73.59" cy="55.12" r="2.32"/><circle class="cls-2" cx="40.97" cy="55.99" r="2.32"/></g></g></svg>