<svg xmlns="http://www.w3.org/2000/svg" viewBox="0 0 113.39 113.39"><defs><style>.cls-1{fill:#f28e5b;}</style></defs><title>Спортивные</title><g id="Слой_2" data-name="Слой 2"><g id="Слой_1-2" data-name="Слой 1"><path class="cls-1" d="M113.39,52.69v8.05a3.35,3.35,0,0,0-.2.61c-.31,2.18-.51,4.38-.93,6.54A56.22,56.22,0,0,1,98.49,95.12a58.27,58.27,0,0,1-13.37,10.75,51.6,51.6,0,0,1-18.21,6.62c-2.13.37-4.29.6-6.44.9H53c-.36-.08-.72-.16-1.08-.21-2-.27-4-.42-6-.82a52.58,52.58,0,0,1-19.46-7.75A58.12,58.12,0,0,1,12.92,92.7,60.64,60.64,0,0,1,4.6,79.07a56.82,56.82,0,0,1,1.85-48.7A59.21,59.21,0,0,1,15.29,18a54.23,54.23,0,0,1,16-12A55.38,55.38,0,0,1,64.73.59,51.61,51.61,0,0,1,84.55,7.38c5.5,3.32,10.59,7,14.73,12A59.19,59.19,0,0,1,107.72,32a57.28,57.28,0,0,1,5,16C113,49.56,113.16,51.13,113.39,52.69Zm-48,38.14,0,.43c5.33-.63,10.66-1.31,16-1.88a2.6,2.6,0,0,0,2.27-1.68c1.33-2.62,2.73-5.2,4.12-7.79q3.45-6.48,7-12.94a1.34,1.34,0,0,0,0-1.49q-4.55-7.56-9-15.15a1.29,1.29,0,0,0-1.43-.69c-2.34.26-4.69.48-7,.72-5.5.56-11,1.1-16.49,1.7a1.72,1.72,0,0,0-1.15.73c-.79,1.42-1.46,2.92-2.22,4.36q-3.18,6.08-6.42,12.12a1.37,1.37,0,0,0,0,1.57c3.49,6,7,11.89,10.38,17.91C62.2,90.46,63.16,91.61,65.39,90.83ZM69,11.71c-4.76.46-9.52.93-14.29,1.36a1.16,1.16,0,0,0-1.13,1c-.61,2-1.25,3.92-1.9,5.88-1.45,4.39-2.93,8.78-4.34,13.19a1.58,1.58,0,0,0,.21,1.31q6,6.73,12.07,13.4a1.78,1.78,0,0,0,1.28.53c4.73-.41,9.45-.89,14.18-1.35,2.75-.27,5.49-.58,8.24-.82,1-.09,1.66-.3,1.93-1.36a25.76,25.76,0,0,1,1-2.74c1.28-3.42,2.59-6.83,3.82-10.27a1.69,1.69,0,0,0-.25-1.42c-4.67-5.31-9.51-10.48-14-15.92A7,7,0,0,0,69,11.71ZM51.92,102.88a3.1,3.1,0,0,0,.7-.56c2.18-2.88,4.35-5.75,6.46-8.68a1.62,1.62,0,0,0,0-1.44Q53.6,82.66,48,73.18a1.75,1.75,0,0,0-1.07-.71C40.68,71.22,34.4,70,28.14,68.75a1.23,1.23,0,0,0-1.58.61c-2.94,4.68-5.94,9.31-8.87,14a1.52,1.52,0,0,0,0,1.33,83.75,83.75,0,0,0,8.78,13.24,2.14,2.14,0,0,0,1.15.67c3.5.66,7,1.27,10.52,1.88ZM24.58,41.39c.2-.12.4-.22.58-.34a115.38,115.38,0,0,1,18.23-9.21,1.31,1.31,0,0,0,.7-.69c2-5.9,3.92-11.81,5.93-17.69.32-1,.18-1.45-.7-1.89-3-1.51-6.06-3.08-9.12-4.57a2,2,0,0,0-1.4-.06,47.66,47.66,0,0,0-14.72,8,34.94,34.94,0,0,0-6.72,6.52c-2.53,3.54-3.93,7.72-5.23,11.88-.2.63,0,.88.54,1.18,3.75,2.15,7.49,4.34,11.22,6.51ZM9.86,37C8.71,38.72,7.6,40.3,6.6,41.94A11.66,11.66,0,0,0,5,45.25a52.87,52.87,0,0,0-1.15,7.5,57.19,57.19,0,0,0,1.7,18.09,10.08,10.08,0,0,0,4,6.33C11.35,78.36,13,79.69,14.79,81c3.15-5,6.28-9.85,9.35-14.79a3.14,3.14,0,0,0,.37-1.91c-.17-1.54-.63-3.05-.76-4.59-.42-4.8-.74-9.6-1.13-14.4a1.43,1.43,0,0,0-.44-.88,9.83,9.83,0,0,0-1.57-1.14C17.07,41.19,13.52,39.14,9.86,37ZM87.93,99.7c12.85-9.94,20-22.66,21.59-38.33-2.93,1.65-5.78,3.35-8.74,4.86a6.48,6.48,0,0,0-3.11,2.92c-3.65,7-7.48,13.94-11.2,20.92a3,3,0,0,0-.23,1.81c.36,2,.84,3.88,1.27,5.82C87.64,98.29,87.76,98.88,87.93,99.7Zm16.72-65.09A49.92,49.92,0,0,0,76.79,7.9c0,.94-.17,2,.33,2.63,2.69,3.26,5.53,6.4,8.34,9.55,2.36,2.65,4.72,5.29,7.14,7.88a5.79,5.79,0,0,0,1.78,1.19c1.38.67,2.86,1.15,4.21,1.88C100.65,32.15,102.64,33.41,104.65,34.61ZM58.19,109.52c-1-.4-2-.76-3-1.19a28.8,28.8,0,0,0-3.6-1.62c-2.18-.59-4.41-1-6.63-1.39-2.7-.51-5.42-1-8.13-1.46l-5.57-.94A46.38,46.38,0,0,0,58.19,109.52Z"/></g></g></svg>