<svg xmlns="http://www.w3.org/2000/svg" viewBox="0 0 113.39 113.39"><defs><style>.cls-1{fill:#f28e5b;}</style></defs><title>Образование</title><g id="Слой_2" data-name="Слой 2"><g id="Слой_1-2" data-name="Слой 1"><path class="cls-1" d="M56.69,0a56.7,56.7,0,1,0,56.7,56.69A56.69,56.69,0,0,0,56.69,0ZM83,76.44a3.11,3.11,0,0,0-2.08,2.67,2.73,2.73,0,0,0,1.17,2.13,8.67,8.67,0,0,0-1.17,4.47c0,1.92-.32,3.65.19,4.86a52.86,52.86,0,0,1-24.43,6c-26.06,0-36.53-16.19-36.53-17.4,0-5.92,0-11.85,0-18A1.31,1.31,0,0,1,22,60l6.08,2.72c8.56,3.83,17.13,7.63,25.67,11.52a7,7,0,0,0,5.84,0c5.85-2.64,16-7.3,23.4-10.59Zm6.67,8a8,8,0,0,0-1.08-3.16,2.73,2.73,0,0,0,1.17-2.13,3,3,0,0,0-1.93-2.61v-15c1.69-.75,2.28-.91,3.33-1.39a1.42,1.42,0,0,1,2,1.29c0,4.08,0,12.92.06,17.72C93.22,79.53,92.69,81.48,89.68,84.4Zm16.17-35.62L85.71,58.12,64.22,48.59a2.29,2.29,0,0,0,.38-1.25c0-2.27-3.54-4.1-7.91-4.1s-7.91,1.83-7.91,4.1,3.55,4.09,7.91,4.09A14.33,14.33,0,0,0,60.27,51l20.87,9.24L58.06,70.94a4.47,4.47,0,0,1-3.6.08L7.54,49.38a1.35,1.35,0,0,1,0-2.45L55.6,25.39a4.5,4.5,0,0,1,3.86-.07l46.38,21A1.36,1.36,0,0,1,105.85,48.78Z"/></g></g></svg>