<svg xmlns="http://www.w3.org/2000/svg" viewBox="0 0 113.39 113.39"><defs><style>.cls-1{fill:#f28e5b;}</style></defs><title>Другое</title><g id="Слой_2" data-name="Слой 2"><g id="Слой_1-2" data-name="Слой 1"><path class="cls-1" d="M67.56,40.22c0-.3-.08-.35-.33-.37s-.28.21-.33.39a12.32,12.32,0,0,1-3.18,5.64,9.83,9.83,0,0,1-11.49,2,11.46,11.46,0,0,1-5.87-7.1q-.12-.37-.21-.75c0-.22-.2-.23-.37-.19s-.3.06-.24.31a1.16,1.16,0,0,1,0,.16,11.65,11.65,0,0,0,4.13,7.32A10.17,10.17,0,0,0,58.54,50,11.43,11.43,0,0,0,67.56,40.22Z"/><path class="cls-1" d="M36.34,21a4.39,4.39,0,0,1,1.09,2.88,3.77,3.77,0,0,1-2.67,3.34,3.61,3.61,0,0,1-4-1.17c-.93-1.16-.93-2.65,0-4.25-.16-.3-.28-.1-.4,0a5,5,0,0,0,4.44,8.75,5.48,5.48,0,0,0,4.41-5A4.63,4.63,0,0,0,36.34,21Z"/><path class="cls-1" d="M58.3,83.65c.14-.06.09-.21,0-.36-.08-4.33-.36-8.65-.66-13A42.51,42.51,0,0,0,57,64.06c-.15-.64-.12-1.59-.93-1.63S55.2,63.35,55,64a36.32,36.32,0,0,0-1.25,6.86c-.38,3.3-.78,6.61-.88,9.94,0,.29-.24.61,0,.86.37-3.61.69-7.22,1.19-10.82.26-1.82.55-3.64.92-5.44a4.39,4.39,0,0,1,.59-1.73c.35-.5.65-.47.9.1a4.83,4.83,0,0,1,.33,1.41c.43,3.52.7,7.06.94,10.6.18,2.61.3,5.22.55,7.82Z"/><path class="cls-1" d="M85.79,25.56A4.63,4.63,0,0,0,82.93,21,4.39,4.39,0,0,1,84,23.84a3.8,3.8,0,0,1-2.67,3.34,3.6,3.6,0,0,1-4-1.17c-.93-1.16-.93-2.65,0-4.25-.17-.3-.28-.1-.4,0a5,5,0,0,0,4.43,8.75A5.48,5.48,0,0,0,85.79,25.56Z"/><path class="cls-1" d="M56.69,0a56.7,56.7,0,1,0,56.7,56.69A56.69,56.69,0,0,0,56.69,0ZM102,72.32a44.63,44.63,0,0,1-17.2,10.43,2.49,2.49,0,0,0-1.11.5A35.85,35.85,0,0,1,93,85.64a9.42,9.42,0,0,1,2,1.1c.3.22.73.46.57.91s-.6.33-.94.3c-1.64-.14-3.29-.28-4.92-.46a24,24,0,0,0-3.49-.09,1.23,1.23,0,0,0-1.36,1.3c-.13,1.84-.47,2-2.32,1.86a13,13,0,0,1-4.28-1.48,11.6,11.6,0,0,0-2-.77c-.8-.23-1.27,0-1.3.87a3.19,3.19,0,0,1-.14.76,1,1,0,0,1-1.58.66,27.8,27.8,0,0,1-4.91-4.54c-.35-.37,0-.66.17-.94A42.28,42.28,0,0,1,84,70.46,40,40,0,0,1,97,66c.31,0,.81,0,.76-.51s-.54-.29-.81-.25A42.14,42.14,0,0,0,67.48,85.41c-.18.31-.43.35-.69.45A20.16,20.16,0,0,1,62.21,87c-.31.09-.4.09-.45.12,1-7.48,2.85-17.52,5.62-24.46.18-.44.41-.83-.24-1.09s-.85,0-1.06.58a69.2,69.2,0,0,0-4.3,21.29c0,.34-.17,4.45-.16,4.7,0,2.21.46,2.63,2.67,2.69a13.31,13.31,0,0,1,2.88.39,3.13,3.13,0,0,1,1,.43,1.19,1.19,0,0,1,.53,1.17c-.06.53-.53.66-.93.7a10.73,10.73,0,0,1-2.12,0c-.67-.06-.89.2-.86.81,0,.33,0,.65,0,1-.05,1.11-.65,1.5-1.69,1.07A7.34,7.34,0,0,1,61.24,95c-.81-.71-1.09-.68-1.68.2-.25.37-.45.85-1,.78s-.81-.61-1-1.11a3,3,0,0,1,.33-2.79c1.25-1.43,1.08-2.94.58-4.54h0a46.51,46.51,0,0,1-5.41-.36c-.53-.09-.62,1.27-.81,1.56a6.58,6.58,0,0,0,.76,3.13A3.1,3.1,0,0,1,53.22,95a1,1,0,0,1-.83.75c-.42,0-.6-.32-.78-.62-1-1.67-1-1.67-2.36-.16a4.54,4.54,0,0,1-1.39,1.19,1.13,1.13,0,0,1-1.78-.81c-.2-.71.08-1.63-.49-2.12s-1.42.15-2.15,0c-.47-.09-1,0-1.14-.65a1.21,1.21,0,0,1,.78-1.32,10.46,10.46,0,0,1,4-.71c1.75-.06,2-.27,2.14-2,0-.13,0-.26,0-.39.08-.42-.2-4.39-.19-4.67a68.61,68.61,0,0,0-4.3-21.29c-.2-.55-.44-.82-1.05-.58s-.42.65-.25,1.09c2.73,6.81,4.58,16.61,5.57,24a1.76,1.76,0,0,0-1-.57,8.55,8.55,0,0,1-5.09-3.88A41.42,41.42,0,0,0,15.4,64.5a.14.14,0,0,0-.09,0c-.37.07-1-.4-1.07.22s.54.47.9.54a41.09,41.09,0,0,1,24.33,13.8,47.7,47.7,0,0,1,3.83,5.12c.29.43.39.74,0,1.16A55.3,55.3,0,0,1,38,90.18c-1.27,1-2,.69-2.22-.87-.18-1.13-.47-1.31-1.56-1a22,22,0,0,0-3.11,1.35,8.38,8.38,0,0,1-3.84.88c-1-.05-1.32-.32-1.39-1.33-.1-1.64-.26-1.81-1.9-1.87a57.88,57.88,0,0,0-7,.51c-.66.05-1.63.36-1.86-.28s.72-1,1.28-1.33a30.64,30.64,0,0,1,9.81-2.93,5.58,5.58,0,0,0,.57-.08c.05,0,.08-.09.19-.2a51.28,51.28,0,0,1-6.81-3.25A38.73,38.73,0,0,1,7.9,69.33a13.88,13.88,0,0,1-2.68-5.75,5.78,5.78,0,0,1,3.92-6.91A16.78,16.78,0,0,1,17,56a35.73,35.73,0,0,1,8.53,2.1c.29-.23.16-.51.14-.74a33.92,33.92,0,0,1,4.48-19.84c.22-.39.2-.6-.19-.86-5.19-3.5-5.86-12.56-1.51-17.42a6.94,6.94,0,0,1,11,.5,12.39,12.39,0,0,1,2.38,6q15.07-8,30.19-.06a6.08,6.08,0,0,0,.44-1.7,11.58,11.58,0,0,1,2-4.17c3.1-4,8.18-4.06,11.39-.14a12.79,12.79,0,0,1-.35,15.73c-.17.19-.37.35-.54.55-.4.46-1.26.6-1.29,1.19s.51,1,.77,1.53a33.31,33.31,0,0,1,3.82,18.26c0,.7.12.81.8.64a27.67,27.67,0,0,1,11.05-.86,10.29,10.29,0,0,1,4,1.37,5.7,5.7,0,0,1,2.65,6.6A16.49,16.49,0,0,1,102,72.32Z"/></g></g></svg>