<svg width="595" height="595" viewBox="0 0 595 595" fill="none" xmlns="http://www.w3.org/2000/svg">
<path d="M501.76 510.9C502.37 504.176 502.7 497.361 502.7 490.466V490.264C502.69 476.24 501.38 462.53 498.88 449.274C494 423.327 484.61 399.107 471.62 377.562C489.9 367.173 502.7 343.387 502.7 315.683C502.7 278.419 479.57 248.211 451.05 248.211C424.96 248.211 403.4 273.492 399.91 306.314C371.38 289.625 338.58 280.105 303.66 280.105C268.74 280.105 235.93 289.625 207.41 306.314C203.92 273.492 182.36 248.211 156.27 248.211C127.75 248.211 104.62 278.419 104.62 315.683C104.62 343.387 117.41 367.173 135.7 377.562C122.71 399.107 113.32 423.327 108.44 449.274C105.94 462.53 104.63 476.24 104.62 490.264V490.466C104.62 498.401 105.05 506.226 105.86 513.929C63.5 497.705 24.35 494.201 0 503.883V594.404C0.16 594.606 0.32 594.798 0.49 595H595V508.861C573.11 499.734 539.32 500.39 501.76 510.9Z" fill="#FF9058" stroke="white" stroke-miterlimit="10"/>
<path d="M456.38 338.52C474.246 338.52 488.73 323.21 488.73 304.325C488.73 285.439 474.246 270.13 456.38 270.13C438.514 270.13 424.03 285.439 424.03 304.325C424.03 323.21 438.514 338.52 456.38 338.52Z" fill="white"/>
<path d="M446.43 332.443C458.807 332.443 468.84 321.838 468.84 308.757C468.84 295.676 458.807 285.072 446.43 285.072C434.053 285.072 424.02 295.676 424.02 308.757C424.02 321.838 434.053 332.443 446.43 332.443Z" fill="#FF9058"/>
<path d="M157.66 338.52C175.526 338.52 190.01 323.21 190.01 304.325C190.01 285.439 175.526 270.13 157.66 270.13C139.794 270.13 125.31 285.439 125.31 304.325C125.31 323.21 139.794 338.52 157.66 338.52Z" fill="white"/>
<path d="M167.61 332.443C179.987 332.443 190.02 321.838 190.02 308.757C190.02 295.676 179.987 285.072 167.61 285.072C155.233 285.072 145.2 295.676 145.2 308.757C145.2 321.838 155.233 332.443 167.61 332.443Z" fill="#FF9058"/>
<path d="M407.61 368.849C399.97 419.773 360.96 458.411 314.81 462.611C263.6 467.265 214.86 428.496 204.5 371.928" fill="#FF9058"/>
<path d="M409.09 369.071C398.47 454.332 303.59 498.593 237.99 438.512C219.25 421.288 206.93 397.35 203.02 372.201L205.97 371.645C211.08 395.785 223.61 418.158 241.79 434.241C279.93 468.537 335.36 468.143 372.39 432.373C389.97 415.664 401.83 392.928 406.12 368.607L409.09 369.061V369.071Z" fill="white"/>
<path d="M193.56 187.13C193.56 187.13 198.85 169.805 201.1 165.181C202.98 161.315 209.87 151.986 210.27 147.513C210.72 142.465 205.57 132.288 201.98 123.303C198.79 115.327 197.14 108.159 197.14 108.159C197.14 108.159 184.24 137.599 183.98 147.109C183.86 151.481 185.65 159.477 187.92 164.727C189.74 168.947 193.57 187.14 193.57 187.14L193.56 187.13Z" fill="#FF9058" stroke="white" stroke-miterlimit="10"/>
<path d="M587.47 288.434C584.61 237.994 565.99 200.437 555.3 179.397C534.03 137.538 494.02 105.928 494.02 105.928C494.02 105.928 494.75 124.565 486.36 153.096C481.92 168.18 472.06 183.819 472.06 183.819C472.06 183.819 476.25 158.457 471.81 128.351C467.43 98.6989 451.13 78.8602 451.13 78.8602C451.13 78.8602 457.03 96.508 448.83 108.25C444.16 114.933 437.3 115.549 430.45 118.305C409.18 126.857 397.97 150.805 389.09 177.852C384.32 192.37 380.58 197.014 380.58 197.014C380.58 197.014 392.98 152.783 393.69 125.272C393.99 113.651 387.29 97.6893 373.83 68.2492C370.07 77.8001 366.57 87.8255 366.57 87.8255C366.57 87.8255 362.32 49.9855 360.93 43.9077C360.848 43.5475 360.769 43.179 360.693 42.8033C360.332 41.0229 359.771 39.2817 358.892 37.6916C346.787 15.7843 334.71 0 334.71 0C334.71 0 341.26 40.9293 320.92 81.9697C311.37 101.253 304.42 100.122 294.11 122.182C289.09 132.924 285.89 143.566 283.85 152.985C284.09 147.988 284.21 142.576 284.15 136.882C284.1 132.551 283.96 129.391 283.93 128.603C283.46 118.285 282 91.0764 270.36 63.4132C261.92 43.3524 244.32 24.7454 244.32 24.7454C244.32 24.7454 261.22 60.758 248.92 95.8922C248.11 98.2042 240.21 110.834 224.41 136.105C209.26 160.325 206.5 164.131 202.96 173.228C194.34 195.389 193 213.44 193 213.44C193 213.44 192.27 200.669 189.94 184.828C186.33 160.305 179.05 154.702 170.79 127.604C160.94 95.2763 158.53 78.8804 158.53 78.8804C158.53 78.8804 143.81 112.046 117.17 150.027C95.56 180.85 78.7 195.792 59.72 218.852C11.24 277.762 26.85 344.376 28.32 354.957C36.36 412.837 94.09 474.675 94.09 474.675C94.09 474.675 101.45 437.805 104.92 425.578C108.15 414.22 122.79 380.722 122.79 380.722C122.79 380.722 90.36 345.668 89.67 310.019C88.73 261.326 121.91 239.014 145.19 234.188C175.92 227.817 198.16 253.643 201.93 259.307C212.4 275.026 215.97 285.344 215.97 285.344C215.97 285.344 260.84 264.971 303.29 263.688C348.18 262.346 390.61 286.112 390.61 286.112C390.61 286.112 404.7 250.786 426.61 239.458C447.9 228.443 481.4 238.186 498.87 259.044C512.87 275.763 518.78 304.325 514.7 332.513C511.73 352.978 488.73 381.237 488.73 381.237C488.73 381.237 502.27 415.341 505.34 427.295C508.38 439.127 513.17 476.361 513.17 476.361C513.17 476.361 592.64 379.773 587.47 288.444V288.434Z" fill="#FF9058" stroke="white" stroke-miterlimit="10"/>
<path d="M0 594.404C0.16 594.606 0.32 594.798 0.49 595H0V594.404Z" fill="#FF9058" stroke="white" stroke-miterlimit="10"/>
</svg>
