<?xml version="1.0" encoding="UTF-8"?><svg xmlns="http://www.w3.org/2000/svg" viewBox="0 0 304.62 488.53"><defs><style>.g{fill:#fff;}.h{fill:none;stroke:#fff;stroke-miterlimit:10;stroke-width:2px;}.i{fill:#ff9058;}</style></defs><g id="a"/><g id="b"><g id="c"><path class="i" d="M303.47,294.27c-4.93-11.64-24.76-14.28-48.11-7.81,.25-2.76,.39-5.55,.39-8.38,0-17.05-4.72-32.94-12.87-46.32,7.57-4.26,12.87-14.02,12.87-25.39,0-15.29-9.58-27.68-21.39-27.68-10.81,0-19.74,10.37-21.18,23.83-11.82-6.85-25.41-10.75-39.87-10.75s-28.05,3.9-39.87,10.75c-1.45-13.47-10.38-23.83-21.18-23.83-11.81,0-21.39,12.39-21.39,27.68,0,11.37,5.3,21.13,12.87,25.39-8.15,13.38-12.87,29.27-12.87,46.32,0,3.25,.18,6.46,.51,9.62-24.89-9.44-47.11-8.38-52.93,3.73-6.93,14.41,11.95,38.99,42.17,54.91,5.17,2.72,10.33,5,15.37,6.86h-.11c-13.4,.94-32.82,7.79-32.82,11.39,0,2.72,17.4-1.84,25.93-.42,5.12,.85-.5,8.31,6.15,8.31,8.35,0,13.1-4.82,18.8-6.11,6.4-1.44,.79,6.08,6.64,6.61,1.86,.17,15.46-12.63,18.17-16.07,.18-.07,.36-.14,.54-.21,2.27,1.08,11.26,4.62,13.64,5.49,.59,2.59-.18,7.46-.58,8.37-1.35,3.04-3.62,1.51-9.72,2.37-3.89,.55-8.35,1.3-7.86,5.17,.16,1.27,2.9,1.77,7.76,.84,3.16-.61,.29,8.64,4.87,8.66,3.89,.02,6.33-5.88,8.94-6.59,2.19-.59,2.65,5.57,4.99,5.06,2.53-.55,3.04-5.3,2.67-7.21-.71-3.73-2.37-4.25-3.49-6.64,.3-2.55,.88-5.03,.86-8.85,5.38,1.16,10.21,.99,15.92,.99,.09,0,1.92,6.42,1.02,8.47-1.12,2.54-2.84,3-3.57,6.81-.37,1.91,.14,6.66,2.67,7.21,2.35,.51,2.84-4.58,5.02-3.99,2.61,.71,5.02,5.53,8.91,5.51,4.58-.03,.57-8.66,3.73-8.06,4.86,.93,8.75-.17,8.91-1.44,.49-3.87-3.97-4.62-7.86-5.17-6.1-.86-8.37,.67-9.72-2.37-.76-1.72-1.4-5.68-.79-7.93,6.68-.82,10.46-2.09,16.56-4.48-.67,.63,13.1,14.38,15.21,14.19,5.85-.53,.24-8.06,6.64-6.61,5.71,1.28,10.46,6.11,18.8,6.11,6.64,0,1.03-7.46,6.15-8.31,8.53-1.42,25.93,3.15,25.93,.42,0-3.6-19.41-10.45-32.82-11.39,5.45-1.64,11.07-3.77,16.71-6.39,30.92-14.35,50.93-37.94,44.68-52.68Z"/><g id="d"><ellipse class="g" cx="236.56" cy="201.71" rx="13.4" ry="14.03"/><ellipse class="i" cx="232.45" cy="203.53" rx="9.28" ry="9.72"/></g><g id="e"><ellipse class="g" cx="112.84" cy="201.71" rx="13.4" ry="14.03"/><ellipse class="i" cx="116.96" cy="203.53" rx="9.28" ry="9.72"/></g><g id="f"><path class="i" d="M119.15,280.45c4.24-28,25.9-49.25,51.52-51.56,28.43-2.56,55.48,18.76,61.24,49.86"/><path class="g" d="M117.67,280.22c5.03-48.07,59.68-73,96.46-38.99,10.48,9.72,17.31,23.18,19.25,37.25l-2.95,.55c-3.15-13.08-10.19-24.98-20.11-33.56-27.38-23.82-65.85-14.57-82.82,16.49-3.22,5.8-5.47,12.14-6.88,18.72l-2.97-.45h0Z"/></g><path class="i" d="M167.76,300.46c1.94,21.31,3.89,42.61,5.83,63.92"/><g><path class="i" d="M177.3,364.37c-3.09-51.86-4.33-64.98-6.39-65-2.07-.02-5.47,12.33-9.53,64.01"/><path class="g" d="M177.3,364.37c-.85-9.38-1.93-23.09-2.68-32.63-.47-5.43-.87-10.87-1.39-16.3-.6-4.96-.7-10.11-2.23-14.88-.09-.25-.31-.48-.23-.41,.23,.1,.3-.09,.1,.14-1.22,1.85-1.6,4.22-2.15,6.37-.59,2.64-1.04,5.32-1.48,8-.88,5.37-1.54,10.78-2.24,16.18-1.19,9.43-2.53,22.98-3.62,32.53,.52-10.91,1.33-21.8,2.38-32.67,.35-2.46,3.36-39.76,8.72-30.81,1.63,4.96,1.71,10.27,2.28,15.41,.43,5.45,.82,10.89,1.11,16.35,.5,9.59,1.21,23.24,1.44,32.72h0Z"/></g><g><path class="i" d="M185.61,363.42c.34-8.58,2.09-22.97,4.42-34.37,2.61-12.83,6.24-23.75,9.77-32.54"/><path class="g" d="M185.61,363.42c.14-22.83,4.02-45.76,12.36-67.07,0-.19,.22-.3,1.36-.04l.93,.37c1.01,.6,1.09,.82,.97,.96l-.2,.49c-8.51,20.79-12.96,43-15.42,65.27h0Z"/></g><g><path class="i" d="M152.92,362.19c-.34-8.58-2.16-23.76-4.48-35.16-2.61-12.83-5.62-22.19-9.15-30.98"/><path class="g" d="M152.92,362.19c-2.47-21.96-6.51-43.98-14.87-64.52l-.2-.49c-.12-.14-.08-.34,.97-.96l.93-.37c1.18-.28,1.35-.16,1.36,.03,.11,.3,.46,1.18,.57,1.5,7.77,20.64,10.98,42.83,11.24,64.8h0Z"/></g><path class="h" d="M280.36,306.65c-9.52,1.34-26.42,5.03-44.23,16.79-18.64,12.3-29.32,27.53-34.51,36.12"/><path class="h" d="M60.94,304.65c9.52,1.34,26.42,5.03,44.23,16.79,18.64,12.3,29.32,27.53,34.51,36.12"/><path class="i" d="M38.39,369.71c-3.15-13.47-10.98-26.18-15.73-39.46-7.92-20.62-11.08-42.82-10.63-64.81-.11-14.7,2.73-29.38,7.39-43.25,11.45-34.37,30.14-66.01,49.24-96.34,14.92-24.39,22.01-53.72,23.53-81.74-.19,28.81-7.64,57.61-22.07,82.59-3.61,6.23-7.51,12.28-11.11,18.51-17.75,31-35.11,63.39-41.64,98.85-1.26,7.06-1.46,14.25-1.38,21.41,.08,14.3,1.68,28.63,5.35,42.45,3.6,13.91,9.67,26.73,16.3,39.47,3.32,6.64,6.66,13.29,8.69,20.6l-7.93,1.73h0Z"/><path class="i" d="M90.57,44.55c-20.26-3.76-56.27-15.65-80.02-4.28-14,6.7-13.37,30.38-2.27,46.82,16.66,24.71,50.52,37.39,109.45,47.66,54.83,9.55,155.14-19.64,172.79,1.79,14.3,17.36,3.01-45.49-7.82-62.84C252.74,25.7,168.01-2.21,103.77,.14c-10.43,.38-30.57,1.29-36.37,10.03-11.08,16.69,32.49,36.11,23.18,34.38Z"/><path class="g" d="M51.64,24.22c18.07,9.58,37.18,17.43,56.81,23.27,11.92,3.23,24.08,6.29,35.89,9.98,31.74,9.56,62.93,21.1,92.94,35.18l-.41,.91c-30.31-13.22-61.66-23.87-93.55-32.54-12-3.39-23.99-6.05-36.12-9-20.17-5.42-39.74-12.84-58.48-22.12l2.92-5.68h0Z"/><g><path class="i" d="M34.28,451.97c-.37,0-.67-.12-.9-.37s-.34-.55-.34-.93v-11.3c0-.39,.11-.7,.34-.94,.23-.24,.53-.36,.9-.36s.7,.12,.94,.36c.24,.24,.36,.55,.36,.94v11.3c0,.37-.12,.68-.36,.93-.24,.25-.55,.37-.94,.37Zm.96-6.07v-2.28h8.91v2.28h-8.91Zm9.47,6.07c-.37,0-.68-.12-.93-.37-.25-.25-.37-.55-.37-.93v-11.3c0-.39,.12-.7,.37-.94,.25-.24,.55-.36,.93-.36s.69,.12,.91,.36c.22,.24,.33,.55,.33,.94v11.3c0,.37-.11,.68-.33,.93-.22,.25-.52,.37-.91,.37Z"/><path class="i" d="M57.05,452.07c-1.41,0-2.65-.3-3.75-.9s-1.95-1.43-2.56-2.49c-.62-1.06-.93-2.27-.93-3.64s.29-2.61,.88-3.67,1.39-1.89,2.42-2.49c1.03-.6,2.22-.9,3.55-.9s2.45,.29,3.4,.88c.95,.58,1.67,1.39,2.17,2.41,.5,1.02,.75,2.21,.75,3.54,0,.32-.11,.59-.33,.8-.22,.21-.5,.32-.84,.32h-10.23v-2.03h10.16l-1.04,.71c-.02-.85-.19-1.6-.51-2.27-.32-.67-.78-1.2-1.37-1.59s-1.31-.58-2.16-.58c-.96,0-1.79,.21-2.48,.63s-1.21,1-1.56,1.74-.53,1.57-.53,2.5,.21,1.76,.63,2.49c.42,.73,1.01,1.3,1.75,1.73,.74,.42,1.6,.63,2.56,.63,.52,0,1.06-.1,1.61-.29,.55-.19,.99-.42,1.33-.67,.25-.19,.53-.28,.83-.29,.3,0,.55,.08,.77,.27,.29,.25,.44,.53,.46,.84,.02,.3-.12,.57-.41,.79-.58,.46-1.29,.83-2.15,1.12-.85,.29-1.67,.43-2.45,.43Z"/><path class="i" d="M67.59,452c-.37,0-.68-.12-.93-.37-.25-.25-.37-.55-.37-.93v-11.3c0-.39,.12-.7,.37-.94,.25-.24,.55-.36,.93-.36s.7,.12,.94,.36c.24,.24,.36,.55,.36,.94v11.3c0,.37-.12,.68-.36,.93-.24,.25-.55,.37-.94,.37Zm8.48,0c-.37,0-.68-.12-.93-.37-.25-.25-.37-.55-.37-.93v-7.26c0-1.07-.26-1.86-.79-2.37s-1.21-.77-2.06-.77-1.61,.3-2.18,.91c-.58,.61-.86,1.39-.86,2.34h-1.6c0-1.1,.22-2.07,.66-2.91s1.05-1.49,1.83-1.97c.78-.47,1.67-.71,2.67-.71s1.82,.21,2.56,.63c.74,.42,1.32,1.04,1.74,1.87,.41,.82,.62,1.82,.62,2.98v7.26c0,.37-.12,.68-.36,.93-.24,.25-.55,.37-.94,.37Zm8.45,0c-.37,0-.68-.12-.93-.37-.25-.25-.37-.55-.37-.93v-7.26c0-1.07-.26-1.86-.79-2.37-.52-.52-1.21-.77-2.06-.77s-1.6,.3-2.17,.91c-.57,.61-.85,1.39-.85,2.34h-2.11c0-1.1,.24-2.07,.71-2.91,.47-.84,1.14-1.49,1.99-1.97,.85-.47,1.83-.71,2.93-.71,.96,0,1.82,.21,2.56,.63,.74,.42,1.32,1.04,1.74,1.87,.41,.82,.62,1.82,.62,2.98v7.26c0,.37-.12,.68-.36,.93-.24,.25-.55,.37-.94,.37Z"/><path class="i" d="M98.84,451.97c-.37,0-.68-.12-.93-.37-.25-.25-.37-.55-.37-.93v-11.3c0-.39,.12-.7,.37-.94,.25-.24,.55-.36,.93-.36,.54,0,1,.26,1.37,.79l5.26,7.59,5.26-7.59c.37-.52,.83-.79,1.37-.79,.39,0,.7,.12,.94,.36,.24,.24,.36,.55,.36,.94v11.3c0,.37-.12,.68-.36,.93-.24,.25-.55,.37-.94,.37s-.68-.12-.93-.37c-.25-.25-.37-.55-.37-.93v-9.24l.66,.2-4.67,6.6c-.42,.59-.88,.88-1.37,.88-.49,0-.94-.3-1.35-.88l-4.6-6.6,.66-.2v9.24c0,.37-.12,.68-.36,.93-.24,.25-.55,.37-.94,.37Z"/><path class="i" d="M124.48,452.07c-1.41,0-2.65-.3-3.75-.9s-1.95-1.43-2.56-2.49c-.62-1.06-.93-2.27-.93-3.64s.29-2.61,.88-3.67,1.39-1.89,2.42-2.49c1.03-.6,2.22-.9,3.55-.9s2.45,.29,3.4,.88c.95,.58,1.67,1.39,2.17,2.41,.5,1.02,.75,2.21,.75,3.54,0,.32-.11,.59-.33,.8-.22,.21-.5,.32-.84,.32h-10.23v-2.03h10.16l-1.04,.71c-.02-.85-.19-1.6-.51-2.27-.32-.67-.78-1.2-1.37-1.59s-1.31-.58-2.16-.58c-.96,0-1.79,.21-2.48,.63s-1.21,1-1.56,1.74-.53,1.57-.53,2.5,.21,1.76,.63,2.49c.42,.73,1.01,1.3,1.75,1.73,.74,.42,1.6,.63,2.56,.63,.52,0,1.06-.1,1.61-.29,.55-.19,.99-.42,1.33-.67,.25-.19,.53-.28,.83-.29,.3,0,.55,.08,.77,.27,.29,.25,.44,.53,.46,.84,.02,.3-.12,.57-.41,.79-.58,.46-1.29,.83-2.15,1.12-.85,.29-1.67,.43-2.45,.43Z"/><path class="i" d="M135.02,457.91c-.37,0-.68-.12-.93-.37-.25-.25-.37-.55-.37-.93v-11.58c.02-1.34,.33-2.54,.94-3.61,.61-1.07,1.44-1.91,2.49-2.53,1.05-.62,2.23-.93,3.55-.93s2.53,.31,3.58,.93c1.05,.62,1.88,1.46,2.5,2.53,.62,1.07,.93,2.27,.93,3.61s-.28,2.53-.85,3.59c-.57,1.06-1.34,1.9-2.32,2.51-.98,.62-2.09,.93-3.33,.93-1,0-1.92-.21-2.75-.62-.84-.41-1.55-.98-2.15-1.69v6.86c0,.37-.12,.68-.36,.93-.24,.25-.55,.37-.94,.37Zm5.69-8.12c.86,0,1.63-.21,2.31-.62,.68-.41,1.21-.98,1.61-1.7,.4-.72,.6-1.53,.6-2.42s-.2-1.73-.6-2.45c-.4-.72-.94-1.29-1.61-1.7-.68-.42-1.45-.62-2.31-.62s-1.61,.21-2.3,.62-1.22,.98-1.61,1.7c-.39,.72-.58,1.54-.58,2.45s.19,1.71,.58,2.42c.39,.72,.93,1.29,1.61,1.7,.69,.42,1.45,.62,2.3,.62Z"/><path class="i" d="M157.87,452.07c-1.37,0-2.58-.3-3.63-.9s-1.87-1.43-2.48-2.49c-.6-1.06-.9-2.27-.9-3.64s.3-2.61,.9-3.67c.6-1.06,1.43-1.89,2.48-2.49s2.26-.9,3.63-.9,2.56,.3,3.6,.9c1.05,.6,1.87,1.43,2.48,2.49,.6,1.06,.9,2.28,.9,3.67s-.3,2.58-.89,3.64c-.59,1.06-1.41,1.89-2.46,2.49-1.05,.6-2.26,.9-3.63,.9Zm0-2.29c.88,0,1.66-.2,2.34-.61,.68-.41,1.21-.96,1.59-1.68s.57-1.53,.57-2.46-.19-1.76-.57-2.48-.91-1.28-1.59-1.69c-.68-.41-1.46-.61-2.34-.61s-1.66,.2-2.34,.61c-.68,.41-1.21,.97-1.6,1.69-.39,.72-.58,1.54-.58,2.48s.19,1.75,.58,2.46c.39,.71,.92,1.27,1.6,1.68,.68,.41,1.46,.61,2.34,.61Z"/><path class="i" d="M170,452c-.37,0-.68-.12-.93-.37-.25-.25-.37-.55-.37-.93v-11.32c0-.39,.12-.7,.37-.94,.25-.24,.55-.36,.93-.36s.7,.12,.94,.36c.24,.24,.36,.55,.36,.94v11.32c0,.37-.12,.68-.36,.93-.24,.25-.55,.37-.94,.37Zm10.44,0c-.37,0-.68-.12-.93-.37-.25-.25-.37-.55-.37-.93v-6.25c0-.96-.18-1.75-.53-2.36s-.83-1.06-1.43-1.36c-.6-.3-1.29-.44-2.07-.44-.71,0-1.35,.14-1.93,.43-.58,.29-1.03,.67-1.37,1.16-.34,.48-.51,1.04-.51,1.66h-1.6c0-1.07,.26-2.02,.77-2.86s1.22-1.5,2.12-1.99c.9-.49,1.9-.74,3.02-.74s2.21,.25,3.14,.75c.92,.5,1.65,1.23,2.18,2.2s.8,2.15,.8,3.55v6.25c0,.37-.12,.68-.37,.93-.25,.25-.55,.37-.93,.37Z"/><path class="i" d="M187.32,457.91c-.37,0-.68-.12-.93-.37-.25-.25-.37-.55-.37-.93v-11.58c.02-1.34,.33-2.54,.94-3.61,.61-1.07,1.44-1.91,2.49-2.53,1.05-.62,2.23-.93,3.55-.93s2.53,.31,3.58,.93c1.05,.62,1.88,1.46,2.5,2.53,.62,1.07,.93,2.27,.93,3.61s-.28,2.53-.85,3.59c-.57,1.06-1.34,1.9-2.32,2.51-.98,.62-2.09,.93-3.33,.93-1,0-1.92-.21-2.75-.62-.84-.41-1.55-.98-2.15-1.69v6.86c0,.37-.12,.68-.36,.93-.24,.25-.55,.37-.94,.37Zm5.69-8.12c.86,0,1.63-.21,2.31-.62,.68-.41,1.21-.98,1.61-1.7,.4-.72,.6-1.53,.6-2.42s-.2-1.73-.6-2.45c-.4-.72-.94-1.29-1.61-1.7-.68-.42-1.45-.62-2.31-.62s-1.61,.21-2.3,.62-1.22,.98-1.61,1.7c-.39,.72-.58,1.54-.58,2.45s.19,1.71,.58,2.42c.39,.72,.93,1.29,1.61,1.7,.69,.42,1.45,.62,2.3,.62Z"/><path class="i" d="M209.71,452.1c-1.17,0-2.21-.25-3.13-.75-.92-.5-1.65-1.23-2.18-2.2s-.8-2.15-.8-3.55v-6.25c0-.37,.12-.68,.37-.93s.55-.37,.93-.37,.68,.12,.93,.37c.25,.25,.37,.55,.37,.93v6.25c0,.95,.18,1.73,.53,2.35,.36,.62,.84,1.08,1.45,1.37,.61,.3,1.29,.44,2.06,.44s1.38-.14,1.94-.43c.57-.29,1.02-.68,1.36-1.17,.34-.49,.51-1.04,.51-1.65h1.6c0,1.05-.26,2-.77,2.84-.52,.85-1.22,1.52-2.11,2.01-.89,.49-1.9,.74-3.03,.74Zm5.61-.13c-.37,0-.68-.12-.93-.37s-.37-.55-.37-.93v-11.32c0-.39,.12-.7,.37-.94,.25-.24,.55-.36,.93-.36s.7,.12,.94,.36c.24,.24,.36,.55,.36,.94v11.32c0,.37-.12,.68-.36,.93-.24,.25-.55,.37-.94,.37Z"/><path class="i" d="M229.97,451.97c-.36,0-.65-.12-.89-.37s-.36-.55-.36-.93v-3.35h-3.58v-.33c-.9,0-1.69-.18-2.39-.53-.69-.36-1.24-.85-1.62-1.47-.39-.63-.58-1.35-.58-2.18,0-.9,.22-1.7,.65-2.41s1.02-1.27,1.78-1.69c.75-.41,1.62-.62,2.6-.62h4.39c.39,0,.7,.12,.94,.36,.24,.24,.36,.55,.36,.94v11.32c-.02,.37-.14,.68-.37,.91-.23,.24-.54,.36-.93,.36Zm-9.01-.3c-.27-.24-.4-.5-.38-.79,.02-.29,.12-.55,.3-.79l3.1-4.04h3.38l-4.34,5.41c-.29,.37-.64,.55-1.07,.53-.42-.02-.75-.13-.99-.33Zm4.62-6.47h3.15v-4.7h-3.15c-.68,0-1.27,.22-1.78,.65s-.76,.99-.76,1.66c0,.71,.25,1.29,.76,1.73,.51,.44,1.1,.66,1.78,.66Z"/><path class="i" d="M237.13,452c-.37,0-.68-.12-.93-.37-.25-.25-.37-.55-.37-.93v-11.3c0-.39,.12-.7,.37-.94,.25-.24,.55-.36,.93-.36s.7,.12,.94,.36c.24,.24,.36,.55,.36,.94v11.3c0,.37-.12,.68-.36,.93-.24,.25-.55,.37-.94,.37Zm8.48,0c-.37,0-.68-.12-.93-.37s-.37-.55-.37-.93v-7.26c0-1.07-.26-1.86-.79-2.37s-1.21-.77-2.06-.77-1.61,.3-2.18,.91c-.58,.61-.86,1.39-.86,2.34h-1.6c0-1.1,.22-2.07,.66-2.91,.44-.84,1.05-1.49,1.83-1.97,.78-.47,1.67-.71,2.67-.71s1.82,.21,2.56,.63,1.32,1.04,1.74,1.87c.41,.82,.62,1.82,.62,2.98v7.26c0,.37-.12,.68-.36,.93-.24,.25-.55,.37-.94,.37Zm8.45,0c-.37,0-.68-.12-.93-.37s-.37-.55-.37-.93v-7.26c0-1.07-.26-1.86-.79-2.37-.53-.52-1.21-.77-2.06-.77s-1.6,.3-2.17,.91c-.57,.61-.85,1.39-.85,2.34h-2.11c0-1.1,.24-2.07,.71-2.91s1.14-1.49,1.99-1.97c.85-.47,1.83-.71,2.93-.71,.96,0,1.82,.21,2.56,.63,.75,.42,1.32,1.04,1.74,1.87s.62,1.82,.62,2.98v7.26c0,.37-.12,.68-.36,.93s-.55,.37-.94,.37Z"/><path class="i" d="M265.49,452.1c-1.17,0-2.21-.25-3.13-.75-.92-.5-1.65-1.23-2.18-2.2s-.8-2.15-.8-3.55v-6.25c0-.37,.12-.68,.37-.93s.55-.37,.93-.37,.68,.12,.93,.37c.25,.25,.37,.55,.37,.93v6.25c0,.95,.18,1.73,.53,2.35,.36,.62,.84,1.08,1.45,1.37,.61,.3,1.29,.44,2.06,.44s1.38-.14,1.94-.43c.57-.29,1.02-.68,1.36-1.17,.34-.49,.51-1.04,.51-1.65h1.6c0,1.05-.26,2-.77,2.84-.52,.85-1.22,1.52-2.11,2.01-.89,.49-1.9,.74-3.03,.74Zm5.61-.13c-.37,0-.68-.12-.93-.37s-.37-.55-.37-.93v-11.32c0-.39,.12-.7,.37-.94,.25-.24,.55-.36,.93-.36s.7,.12,.94,.36c.24,.24,.36,.55,.36,.94v11.32c0,.37-.12,.68-.36,.93-.24,.25-.55,.37-.94,.37Z"/><path class="i" d="M282.81,452.1c-1.17,0-2.21-.25-3.13-.75-.92-.5-1.65-1.23-2.18-2.2s-.8-2.15-.8-3.55v-6.25c0-.37,.12-.68,.37-.93s.55-.37,.93-.37,.68,.12,.93,.37c.25,.25,.37,.55,.37,.93v6.25c0,.95,.18,1.73,.53,2.35,.36,.62,.84,1.08,1.45,1.37,.61,.3,1.29,.44,2.06,.44s1.38-.14,1.94-.43c.57-.29,1.02-.68,1.36-1.17,.34-.49,.51-1.04,.51-1.65h1.6c0,1.05-.26,2-.77,2.84-.52,.85-1.22,1.52-2.11,2.01-.89,.49-1.9,.74-3.03,.74Zm.53-15.84c-.86,0-1.64-.15-2.34-.44-.69-.3-1.24-.7-1.65-1.22-.41-.52-.61-1.1-.61-1.74,0-.36,.11-.65,.33-.89,.22-.24,.49-.36,.81-.36s.61,.12,.83,.36c.21,.24,.32,.53,.32,.89,0,.42,.22,.78,.66,1.08,.44,.3,.99,.44,1.65,.44s1.21-.15,1.65-.44c.44-.3,.66-.66,.66-1.08,0-.36,.11-.65,.33-.89s.49-.36,.81-.36c.34,0,.61,.12,.83,.36,.21,.24,.32,.53,.32,.89,0,.64-.2,1.22-.61,1.74-.41,.52-.95,.92-1.64,1.22-.69,.3-1.47,.44-2.35,.44Zm5.08,15.72c-.37,0-.68-.12-.93-.37s-.37-.55-.37-.93v-11.32c0-.39,.12-.7,.37-.94,.25-.24,.55-.36,.93-.36s.7,.12,.94,.36c.24,.24,.36,.55,.36,.94v11.32c0,.37-.12,.68-.36,.93-.24,.25-.55,.37-.94,.37Z"/><path class="i" d="M30.09,482.46c-.37,0-.68-.12-.93-.37-.25-.25-.37-.55-.37-.93v-4.7h-1.73l-3.88,5.61c-.17,.24-.44,.36-.83,.37s-.68-.1-.9-.32c-.25-.25-.37-.52-.36-.79,.02-.27,.11-.53,.28-.79l3.55-5.25-3.27-4.9c-.17-.27-.25-.55-.24-.83,0-.28,.14-.54,.39-.77,.22-.2,.52-.3,.9-.29,.38,0,.66,.16,.82,.44l3.38,5.23h1.88v-4.34c0-.39,.12-.7,.37-.94,.25-.24,.55-.36,.93-.36s.7,.12,.94,.36c.24,.24,.36,.55,.36,.94v4.34h1.9l3.35-5.23c.19-.29,.47-.44,.84-.44,.37,0,.67,.09,.89,.29,.25,.24,.39,.5,.41,.77,.02,.28-.07,.55-.25,.83l-3.27,4.9,3.55,5.25c.17,.25,.26,.52,.28,.79,.02,.27-.1,.53-.36,.79-.22,.22-.52,.33-.9,.32s-.66-.13-.83-.37l-3.86-5.61h-1.75v4.7c0,.37-.12,.68-.36,.93-.24,.25-.55,.37-.94,.37Z"/><path class="i" d="M46.77,482.54c-1.24,0-2.34-.31-3.33-.93-.98-.62-1.76-1.46-2.32-2.51-.57-1.06-.85-2.25-.85-3.59s.31-2.54,.93-3.61c.62-1.07,1.46-1.91,2.51-2.53,1.06-.62,2.25-.93,3.57-.93s2.5,.31,3.55,.93c1.05,.62,1.88,1.46,2.5,2.53,.62,1.07,.93,2.27,.93,3.61h-.99c0,1.34-.28,2.53-.85,3.59-.57,1.06-1.34,1.9-2.32,2.51-.98,.62-2.09,.93-3.33,.93Zm.51-2.29c.86,0,1.63-.21,2.31-.62,.68-.41,1.21-.98,1.6-1.7,.39-.72,.58-1.53,.58-2.42s-.19-1.73-.58-2.45c-.39-.72-.92-1.29-1.6-1.7-.68-.42-1.45-.62-2.31-.62s-1.61,.21-2.3,.62-1.23,.98-1.62,1.7c-.4,.72-.6,1.54-.6,2.45s.2,1.71,.6,2.42c.4,.72,.94,1.29,1.62,1.7,.69,.42,1.45,.62,2.3,.62Zm5.69,2.21c-.37,0-.68-.12-.93-.37-.25-.25-.37-.55-.37-.93v-3.88l.48-2.69,2.11,.91v5.66c0,.37-.12,.68-.37,.93-.25,.25-.55,.37-.93,.37Z"/><path class="i" d="M57.48,475.99l.03-2.87c.02-2,.57-3.83,1.66-5.48,1.09-1.66,2.79-3,5.09-4.04l4.75-2.11c.34-.14,.64-.16,.91-.06,.27,.09,.47,.29,.58,.6,.12,.32,.15,.61,.09,.88-.06,.26-.31,.5-.75,.7l-5.15,2.36c-1.19,.54-2.16,1.19-2.92,1.93-.76,.75-1.32,1.58-1.69,2.5-.36,.92-.56,1.92-.6,2.98l-.05,2.62h-1.95Zm6.98,6.55c-1.35,0-2.56-.28-3.61-.84-1.05-.56-1.87-1.33-2.46-2.32-.59-.99-.9-2.12-.91-3.39h1.24c0-1.29,.27-2.42,.8-3.39s1.27-1.74,2.21-2.3,2.02-.84,3.24-.84,2.3,.28,3.24,.84,1.68,1.32,2.21,2.3,.8,2.1,.8,3.39-.29,2.4-.86,3.39c-.58,.99-1.37,1.76-2.39,2.32s-2.18,.84-3.5,.84Zm0-2.29c.85,0,1.59-.18,2.22-.55,.63-.36,1.13-.87,1.5-1.51,.36-.64,.55-1.38,.55-2.21s-.18-1.56-.55-2.2c-.36-.63-.86-1.13-1.5-1.5s-1.38-.55-2.22-.55-1.66,.18-2.34,.55c-.68,.36-1.21,.86-1.59,1.5s-.57,1.37-.57,2.2,.19,1.57,.57,2.21c.38,.64,.91,1.15,1.59,1.51,.68,.36,1.46,.55,2.34,.55Z"/><path class="i" d="M81.6,482.54c-1.41,0-2.65-.3-3.75-.9s-1.95-1.43-2.56-2.49c-.62-1.06-.93-2.27-.93-3.64s.29-2.61,.88-3.67,1.39-1.89,2.42-2.49c1.03-.6,2.22-.9,3.55-.9s2.45,.29,3.4,.88c.95,.58,1.67,1.39,2.17,2.41,.5,1.02,.75,2.21,.75,3.54,0,.32-.11,.59-.33,.8-.22,.21-.5,.32-.84,.32h-10.23v-2.03h10.16l-1.04,.71c-.02-.85-.19-1.6-.51-2.27-.32-.67-.78-1.2-1.37-1.59s-1.31-.58-2.16-.58c-.96,0-1.79,.21-2.48,.63s-1.21,1-1.56,1.74-.53,1.57-.53,2.5,.21,1.76,.63,2.49c.42,.73,1.01,1.3,1.75,1.73,.74,.42,1.6,.63,2.56,.63,.52,0,1.06-.1,1.61-.29,.55-.19,.99-.42,1.33-.67,.25-.19,.53-.28,.83-.29,.3,0,.55,.08,.77,.27,.29,.25,.44,.53,.46,.84,.02,.3-.12,.57-.41,.79-.58,.46-1.29,.83-2.15,1.12-.85,.29-1.67,.43-2.45,.43Z"/><path class="i" d="M104.58,482.54c-1.37,0-2.58-.3-3.63-.9s-1.87-1.43-2.48-2.49c-.6-1.06-.9-2.27-.9-3.64s.3-2.61,.9-3.67c.6-1.06,1.43-1.89,2.48-2.49s2.26-.9,3.63-.9,2.56,.3,3.6,.9c1.05,.6,1.87,1.43,2.48,2.49,.6,1.06,.9,2.28,.9,3.67s-.3,2.58-.89,3.64c-.59,1.06-1.41,1.89-2.46,2.49-1.05,.6-2.26,.9-3.63,.9Zm0-2.29c.88,0,1.66-.2,2.34-.61,.68-.41,1.21-.96,1.59-1.68s.57-1.53,.57-2.46-.19-1.76-.57-2.48-.91-1.28-1.59-1.69c-.68-.41-1.46-.61-2.34-.61s-1.66,.2-2.34,.61c-.68,.41-1.21,.97-1.6,1.69-.39,.72-.58,1.54-.58,2.48s.19,1.75,.58,2.46c.39,.71,.92,1.27,1.6,1.68,.68,.41,1.46,.61,2.34,.61Z"/><path class="i" d="M119.63,478.28c-1.22,0-2.23-.28-3.02-.84s-1.38-1.32-1.76-2.3c-.38-.97-.57-2.09-.57-3.36v-1.93c0-.39,.12-.7,.37-.94,.25-.24,.55-.36,.93-.36s.7,.12,.94,.36c.24,.24,.36,.55,.36,.94v1.93c0,1.22,.24,2.22,.72,3s1.33,1.17,2.55,1.17c.96,0,1.76-.16,2.37-.48,.62-.32,.93-.74,.93-1.24h1.35c0,.8-.22,1.5-.66,2.11-.44,.61-1.05,1.09-1.81,1.43-.77,.35-1.66,.52-2.68,.52Zm5.1,4.16c-.37,0-.68-.12-.93-.37-.25-.25-.37-.55-.37-.93v-11.3c0-.39,.12-.7,.37-.94,.25-.24,.55-.36,.93-.36s.7,.12,.94,.36c.24,.24,.36,.55,.36,.94v11.3c0,.37-.12,.68-.36,.93-.24,.25-.55,.37-.94,.37Z"/><path class="i" d="M137.13,482.54c-1.41,0-2.65-.3-3.75-.9s-1.95-1.43-2.56-2.49c-.62-1.06-.93-2.27-.93-3.64s.29-2.61,.88-3.67,1.39-1.89,2.42-2.49c1.03-.6,2.22-.9,3.55-.9s2.45,.29,3.4,.88c.95,.58,1.67,1.39,2.17,2.41,.5,1.02,.75,2.21,.75,3.54,0,.32-.11,.59-.33,.8-.22,.21-.5,.32-.84,.32h-10.23v-2.03h10.16l-1.04,.71c-.02-.85-.19-1.6-.51-2.27-.32-.67-.78-1.2-1.37-1.59s-1.31-.58-2.16-.58c-.96,0-1.79,.21-2.48,.63s-1.21,1-1.56,1.74-.53,1.57-.53,2.5,.21,1.76,.63,2.49c.42,.73,1.01,1.3,1.75,1.73,.74,.42,1.6,.63,2.56,.63,.52,0,1.06-.1,1.61-.29,.55-.19,.99-.42,1.33-.67,.25-.19,.53-.28,.83-.29,.3,0,.55,.08,.77,.27,.29,.25,.44,.53,.46,.84,.02,.3-.12,.57-.41,.79-.58,.46-1.29,.83-2.15,1.12-.85,.29-1.67,.43-2.45,.43Z"/><path class="i" d="M147.61,482.44c-.37,0-.67-.12-.9-.37s-.34-.55-.34-.93v-11.3c0-.39,.11-.7,.34-.94,.23-.24,.53-.36,.9-.36s.7,.12,.94,.36c.24,.24,.36,.55,.36,.94v11.3c0,.37-.12,.68-.36,.93-.24,.25-.55,.37-.94,.37Zm.96-6.07v-2.28h8.91v2.28h-8.91Zm9.47,6.07c-.37,0-.68-.12-.93-.37-.25-.25-.37-.55-.37-.93v-11.3c0-.39,.12-.7,.37-.94,.25-.24,.55-.36,.93-.36s.69,.12,.91,.36c.22,.24,.33,.55,.33,.94v11.3c0,.37-.11,.68-.33,.93-.22,.25-.52,.37-.91,.37Z"/><path class="i" d="M170.13,482.67c-1.27,0-2.37-.23-3.31-.69s-1.67-1.1-2.18-1.94c-.52-.84-.77-1.82-.77-2.96v-7.26c.03-.36,.17-.66,.42-.9,.25-.25,.54-.37,.88-.37,.37,0,.68,.12,.93,.37,.25,.25,.37,.55,.37,.93v2.84h4.16c1.1,0,2.09,.19,2.96,.57,.87,.38,1.56,.93,2.07,1.65,.51,.72,.76,1.58,.76,2.58s-.26,1.89-.77,2.67c-.52,.78-1.24,1.39-2.17,1.84-.93,.45-2.04,.67-3.33,.67Zm-.03-2.39c1.08,0,1.99-.23,2.72-.7,.73-.46,1.09-1.16,1.09-2.09,0-.88-.31-1.54-.94-1.97-.63-.43-1.41-.65-2.36-.65h-4.16v2.16c0,.61,.16,1.16,.48,1.65,.32,.49,.76,.88,1.31,1.17,.55,.29,1.17,.43,1.87,.43Z"/><path class="i" d="M191.56,482.54c-1.07,0-2.02-.17-2.86-.5-.84-.33-1.5-.79-1.98-1.38-.48-.59-.72-1.27-.72-2.03s.22-1.41,.65-1.96c.43-.54,1.06-1,1.88-1.37s1.81-.67,2.96-.89c1.15-.24,1.93-.52,2.34-.85s.61-.76,.61-1.28-.27-.94-.81-1.21c-.54-.26-1.17-.39-1.88-.39-.59,0-1.18,.09-1.76,.28s-1.07,.46-1.46,.81c-.25,.24-.53,.4-.84,.48s-.55,.07-.74-.05c-.32-.2-.52-.47-.6-.79s0-.62,.22-.89c.51-.63,1.22-1.13,2.15-1.51s1.94-.57,3.06-.57c.95,0,1.81,.15,2.59,.44,.78,.3,1.4,.73,1.87,1.31,.47,.58,.7,1.29,.7,2.13,0,.98-.4,1.81-1.19,2.48-.8,.67-2.01,1.18-3.63,1.54-1.34,.27-2.26,.59-2.77,.95-.51,.36-.75,.8-.74,1.31,.02,.53,.27,.93,.76,1.22,.49,.29,1.23,.43,2.21,.43,.88,0,1.63-.09,2.25-.27,.62-.18,1.1-.45,1.46-.83,.24-.25,.51-.42,.81-.51,.3-.08,.62,0,.94,.28,.29,.24,.43,.51,.43,.81s-.13,.59-.38,.86c-.56,.56-1.34,1.02-2.34,1.38-1,.36-2.06,.55-3.17,.55Z"/><path class="i" d="M201.92,488.38c-.37,0-.68-.12-.93-.37-.25-.25-.37-.55-.37-.93v-11.58c.02-1.34,.33-2.54,.94-3.61s1.44-1.91,2.49-2.53c1.05-.62,2.23-.93,3.55-.93s2.53,.31,3.58,.93c1.05,.62,1.88,1.46,2.5,2.53,.62,1.07,.93,2.27,.93,3.61s-.28,2.53-.85,3.59c-.57,1.06-1.34,1.9-2.32,2.51-.98,.62-2.09,.93-3.33,.93-1,0-1.92-.21-2.75-.62-.84-.41-1.55-.98-2.14-1.69v6.86c0,.37-.12,.68-.36,.93-.24,.25-.55,.37-.94,.37Zm5.69-8.12c.86,0,1.63-.21,2.31-.62,.68-.41,1.21-.98,1.61-1.7,.4-.72,.6-1.53,.6-2.42s-.2-1.73-.6-2.45c-.4-.72-.94-1.29-1.61-1.7-.68-.42-1.45-.62-2.31-.62s-1.61,.21-2.3,.62-1.22,.98-1.61,1.7c-.39,.72-.58,1.54-.58,2.45s.19,1.71,.58,2.42c.39,.72,.93,1.29,1.61,1.7,.69,.42,1.45,.62,2.3,.62Z"/><path class="i" d="M217.41,488.53c-.3,0-.61-.04-.93-.13-.31-.08-.62-.21-.93-.38-.37-.22-.62-.49-.74-.81-.12-.32-.07-.63,.15-.94,.2-.29,.45-.47,.74-.53,.29-.07,.59,0,.91,.18,.19,.1,.36,.18,.52,.23,.16,.05,.33,.08,.5,.08,.54,0,1.06-.28,1.56-.84,.5-.56,.99-1.39,1.49-2.49l6.07-13.71c.15-.34,.38-.57,.7-.69,.31-.12,.63-.1,.95,.05,.29,.12,.47,.33,.56,.65,.08,.31,.04,.65-.13,1l-6.12,13.71c-.61,1.37-1.38,2.48-2.32,3.34-.94,.85-1.93,1.28-2.98,1.28Zm5.79-6.65c-.32,.14-.62,.15-.9,.04-.28-.11-.5-.33-.67-.65l-5.81-11.04c-.17-.32-.19-.63-.06-.93s.35-.51,.67-.65c.32-.13,.62-.15,.9-.04,.28,.11,.5,.33,.67,.65l5.58,10.94c.17,.32,.23,.65,.18,.98s-.24,.56-.56,.7Z"/><path class="i" d="M237.41,482.54c-1.35,0-2.56-.31-3.62-.93-1.06-.62-1.89-1.46-2.49-2.51-.6-1.06-.9-2.25-.9-3.59s.3-2.59,.89-3.66c.59-1.07,1.4-1.9,2.44-2.5,1.03-.6,2.22-.9,3.55-.9,1,0,1.91,.19,2.74,.57s1.57,.95,2.23,1.71c.24,.27,.32,.55,.25,.84-.07,.29-.25,.54-.56,.76-.24,.17-.5,.22-.79,.17s-.55-.21-.79-.44c-.83-.88-1.86-1.32-3.1-1.32-.86,0-1.62,.2-2.28,.6-.66,.4-1.18,.95-1.55,1.66-.37,.71-.56,1.55-.56,2.51,0,.91,.19,1.73,.57,2.44s.91,1.27,1.59,1.69c.68,.42,1.46,.62,2.36,.62,.59,0,1.11-.07,1.56-.22,.45-.14,.86-.37,1.23-.67,.27-.22,.55-.34,.84-.37s.54,.06,.76,.24c.29,.24,.45,.5,.48,.8,.03,.3-.07,.56-.3,.8-1.22,1.13-2.74,1.7-4.57,1.7Z"/><path class="i" d="M247.67,482.46c-.37,0-.68-.12-.93-.37-.25-.25-.37-.55-.37-.93v-11.3c0-.39,.12-.7,.37-.94,.25-.24,.55-.36,.93-.36s.7,.12,.94,.36c.24,.24,.36,.55,.36,.94v11.3c0,.37-.12,.68-.36,.93-.24,.25-.55,.37-.94,.37Zm8.48,0c-.37,0-.68-.12-.93-.37s-.37-.55-.37-.93v-7.26c0-1.07-.26-1.86-.79-2.37s-1.21-.77-2.06-.77-1.61,.3-2.18,.91c-.58,.61-.86,1.39-.86,2.34h-1.6c0-1.1,.22-2.07,.66-2.91,.44-.84,1.05-1.49,1.83-1.97,.78-.47,1.67-.71,2.67-.71s1.82,.21,2.56,.63,1.32,1.04,1.74,1.87c.41,.82,.62,1.82,.62,2.98v7.26c0,.37-.12,.68-.36,.93-.24,.25-.55,.37-.94,.37Zm8.45,0c-.37,0-.68-.12-.93-.37s-.37-.55-.37-.93v-7.26c0-1.07-.26-1.86-.79-2.37-.53-.52-1.21-.77-2.06-.77s-1.6,.3-2.17,.91c-.57,.61-.85,1.39-.85,2.34h-2.11c0-1.1,.24-2.07,.71-2.91s1.14-1.49,1.99-1.97c.85-.47,1.83-.71,2.93-.71,.96,0,1.82,.21,2.56,.63,.75,.42,1.32,1.04,1.74,1.87s.62,1.82,.62,2.98v7.26c0,.37-.12,.68-.36,.93s-.55,.37-.94,.37Z"/><path class="i" d="M271.43,482.44c-.37,0-.67-.12-.9-.37s-.34-.55-.34-.93v-11.3c0-.39,.11-.7,.34-.94,.23-.24,.53-.36,.9-.36s.7,.12,.94,.36c.24,.24,.36,.55,.36,.94v11.3c0,.37-.12,.68-.36,.93-.24,.25-.55,.37-.94,.37Zm.96-6.07v-2.28h8.91v2.28h-8.91Zm9.47,6.07c-.37,0-.68-.12-.93-.37s-.37-.55-.37-.93v-11.3c0-.39,.12-.7,.37-.94,.25-.24,.55-.36,.93-.36s.69,.12,.91,.36c.22,.24,.33,.55,.33,.94v11.3c0,.37-.11,.68-.33,.93-.22,.25-.53,.37-.91,.37Z"/><path class="i" d="M293.98,482.54c-1.37,0-2.58-.3-3.63-.9-1.05-.6-1.88-1.43-2.48-2.49-.6-1.06-.9-2.27-.9-3.64s.3-2.61,.9-3.67c.6-1.06,1.43-1.89,2.48-2.49,1.05-.6,2.26-.9,3.63-.9s2.56,.3,3.61,.9c1.05,.6,1.87,1.43,2.48,2.49,.6,1.06,.9,2.28,.9,3.67s-.3,2.58-.89,3.64c-.59,1.06-1.41,1.89-2.46,2.49-1.05,.6-2.26,.9-3.63,.9Zm0-2.29c.88,0,1.66-.2,2.34-.61s1.21-.96,1.59-1.68,.57-1.53,.57-2.46-.19-1.76-.57-2.48-.91-1.28-1.59-1.69-1.46-.61-2.34-.61-1.66,.2-2.33,.61c-.68,.41-1.21,.97-1.6,1.69-.39,.72-.58,1.54-.58,2.48s.19,1.75,.58,2.46c.39,.71,.92,1.27,1.6,1.68,.68,.41,1.46,.61,2.33,.61Z"/></g></g></g></svg>