<svg width="305" height="489" viewBox="0 0 305 489" fill="none" xmlns="http://www.w3.org/2000/svg">
<g clip-path="url(#clip0_966_2448)">
<path d="M232.45 213.25C237.575 213.25 241.73 208.898 241.73 203.53C241.73 198.162 237.575 193.81 232.45 193.81C227.325 193.81 223.17 198.162 223.17 203.53C223.17 208.898 227.325 213.25 232.45 213.25Z" fill="#FF9058"/>
<path d="M116.96 213.25C122.085 213.25 126.24 208.898 126.24 203.53C126.24 198.162 122.085 193.81 116.96 193.81C111.835 193.81 107.68 198.162 107.68 203.53C107.68 208.898 111.835 213.25 116.96 213.25Z" fill="#FF9058"/>
<path d="M119.15 280.45C123.39 252.45 145.05 231.2 170.67 228.89C199.1 226.33 226.15 247.65 231.91 278.75" fill="#FF9058"/>
<path d="M167.76 300.46C169.7 321.77 171.65 343.07 173.59 364.38L167.76 300.46Z" fill="#FF9058"/>
<path d="M177.3 364.37C174.21 312.51 172.97 299.39 170.91 299.37C168.84 299.35 165.44 311.7 161.38 363.38" fill="#FF9058"/>
<path d="M185.61 363.42C185.95 354.84 187.7 340.45 190.03 329.05C192.64 316.22 196.27 305.3 199.8 296.51" fill="#FF9058"/>
<path d="M152.92 362.19C152.58 353.61 150.76 338.43 148.44 327.03C145.83 314.2 142.82 304.84 139.29 296.05" fill="#FF9058"/>
<path fill-rule="evenodd" clip-rule="evenodd" d="M303.47 294.27C298.54 282.63 278.71 279.99 255.36 286.46C255.61 283.7 255.75 280.91 255.75 278.08C255.75 261.03 251.03 245.14 242.88 231.76C250.45 227.5 255.75 217.74 255.75 206.37C255.75 191.08 246.17 178.69 234.36 178.69C223.55 178.69 214.62 189.06 213.18 202.52C201.36 195.67 187.77 191.77 173.31 191.77C158.85 191.77 145.26 195.67 133.44 202.52C131.99 189.05 123.06 178.69 112.26 178.69C100.45 178.69 90.87 191.08 90.87 206.37C90.87 217.74 96.17 227.5 103.74 231.76C95.59 245.14 90.87 261.03 90.87 278.08C90.87 281.33 91.05 284.54 91.38 287.7C66.49 278.26 44.27 279.32 38.45 291.43C31.52 305.84 50.4 330.42 80.62 346.34C85.79 349.06 90.95 351.34 95.99 353.2H95.88C82.48 354.14 63.06 360.99 63.06 364.59C63.06 365.992 67.6843 365.46 73.3336 364.809C78.6428 364.198 84.8574 363.482 88.99 364.17C91.38 364.567 91.4298 366.404 91.4798 368.25C91.5368 370.359 91.5943 372.48 95.14 372.48C100.337 372.48 104.14 370.613 107.645 368.892C109.771 367.847 111.788 366.857 113.94 366.37C117.23 365.63 117.346 367.257 117.477 369.085C117.601 370.814 117.737 372.722 120.58 372.98C122.367 373.143 134.996 361.33 138.384 357.354C133.085 348.724 122.579 334.125 104.619 322.275L104.619 322.274C86.973 310.623 70.2299 306.967 60.8006 305.64L61.0793 303.66C70.69 305.012 87.7469 308.737 105.721 320.605C124.53 333.017 135.303 348.382 140.536 357.043L140.33 357.167C143.551 358.563 150.802 361.411 152.92 362.186C150.45 340.227 146.41 318.209 138.05 297.67L137.85 297.18C137.73 297.04 137.77 296.84 138.82 296.22L139.75 295.85C140.93 295.57 141.1 295.69 141.11 295.88C141.154 296 141.236 296.212 141.326 296.445L141.327 296.447C141.462 296.796 141.614 297.188 141.68 297.38C149.45 318.02 152.66 340.21 152.92 362.18V362.186L152.93 362.19C153.52 364.78 152.75 369.65 152.35 370.56C151.458 372.569 150.164 372.582 147.629 372.608H147.628C146.327 372.622 144.699 372.638 142.63 372.93C138.74 373.48 134.28 374.23 134.77 378.1C134.93 379.37 137.67 379.87 142.53 378.94C143.972 378.662 144.158 380.436 144.37 382.45C144.622 384.85 144.91 387.589 147.4 387.6C149.672 387.612 151.449 385.604 153.055 383.79C154.198 382.498 155.254 381.305 156.34 381.01C157.423 380.718 158.083 382.077 158.756 383.464C159.445 384.881 160.147 386.328 161.33 386.07C163.86 385.52 164.37 380.77 164 378.86C163.55 376.497 162.719 375.422 161.886 374.345C161.404 373.721 160.921 373.096 160.51 372.22C160.59 371.54 160.69 370.865 160.793 370.168C161.077 368.252 161.385 366.171 161.37 363.37C166.131 364.397 170.462 364.381 175.352 364.364H175.353C175.988 364.362 176.633 364.36 177.29 364.36C177.38 364.36 179.21 370.78 178.31 372.83C177.883 373.799 177.368 374.465 176.855 375.13C176.022 376.208 175.192 377.283 174.74 379.64C174.37 381.55 174.88 386.3 177.41 386.85C178.599 387.108 179.312 385.933 180.008 384.785C180.688 383.664 181.353 382.568 182.43 382.86C183.495 383.15 184.527 384.124 185.639 385.174C187.253 386.697 189.037 388.382 191.34 388.37C193.845 388.354 193.78 385.765 193.725 383.521C193.678 381.661 193.638 380.038 195.07 380.31C199.93 381.24 203.82 380.14 203.98 378.87C204.47 375 200.01 374.25 196.12 373.7C194.051 373.408 192.423 373.392 191.122 373.378H191.121C188.586 373.352 187.292 373.339 186.4 371.33C185.64 369.61 185 365.65 185.61 363.4C191.926 362.625 195.649 361.447 201.192 359.301L200.764 359.043C205.997 350.382 216.77 335.017 235.579 322.605C253.553 310.737 270.61 307.012 280.221 305.66L280.499 307.64C271.07 308.967 254.327 312.623 236.681 324.274L236.681 324.275C218.388 336.345 207.828 351.267 202.626 359.829C205.012 363.015 215.555 373.274 217.38 373.11C220.223 372.852 220.359 370.942 220.483 369.212C220.614 367.382 220.73 365.755 224.02 366.5C226.183 366.985 228.209 367.979 230.344 369.028C233.845 370.747 237.64 372.61 242.82 372.61C246.359 372.61 246.418 370.49 246.477 368.382C246.528 366.535 246.579 364.697 248.97 364.3C253.1 363.612 259.308 364.329 264.615 364.941C270.27 365.594 274.9 366.128 274.9 364.72C274.9 361.12 255.49 354.27 242.08 353.33C247.53 351.69 253.15 349.56 258.79 346.94C289.71 332.59 309.72 309 303.47 294.26V294.27ZM236.56 215.74C243.961 215.74 249.96 209.458 249.96 201.71C249.96 193.961 243.961 187.68 236.56 187.68C229.159 187.68 223.16 193.961 223.16 201.71C223.16 209.458 229.159 215.74 236.56 215.74ZM126.24 201.71C126.24 209.458 120.241 215.74 112.84 215.74C105.439 215.74 99.4399 209.458 99.4399 201.71C99.4399 193.961 105.439 187.68 112.84 187.68C120.241 187.68 126.24 193.961 126.24 201.71ZM117.67 280.22C122.7 232.15 177.35 207.22 214.13 241.23C224.61 250.95 231.44 264.41 233.38 278.48L230.43 279.03C227.28 265.95 220.24 254.05 210.32 245.47C182.94 221.65 144.47 230.9 127.5 261.96C124.28 267.76 122.03 274.1 120.62 280.68L117.65 280.23L117.67 280.22ZM174.62 331.74C175.37 341.28 176.45 354.99 177.3 364.37H177.31C177.08 354.89 176.37 341.24 175.87 331.65C175.58 326.19 175.19 320.75 174.76 315.3C174.622 314.056 174.513 312.802 174.403 311.546L174.403 311.546L174.403 311.545L174.403 311.545L174.403 311.545C174.06 307.61 173.715 303.649 172.48 299.89C167.719 291.941 164.812 320.476 163.977 328.681C163.871 329.714 163.799 330.425 163.76 330.7C162.71 341.57 161.9 352.46 161.38 363.37C161.794 359.743 162.244 355.54 162.708 351.204C163.466 344.123 164.262 336.689 165 330.84C165.108 330.004 165.216 329.167 165.323 328.33L165.324 328.328L165.324 328.328C165.91 323.763 166.496 319.197 167.24 314.66C167.68 311.98 168.13 309.3 168.72 306.66C168.823 306.258 168.92 305.848 169.017 305.435L169.018 305.433C169.441 303.644 169.877 301.8 170.864 300.299C170.912 300.373 170.966 300.465 171 300.56C172.13 304.085 172.48 307.817 172.828 311.527L172.828 311.528L172.828 311.529L172.828 311.53L172.828 311.532C172.951 312.841 173.073 314.147 173.23 315.44C173.558 318.863 173.838 322.29 174.118 325.716L174.118 325.717L174.118 325.719C174.282 327.727 174.446 329.734 174.62 331.74Z" fill="#FF9058"/>
<path d="M38.3901 369.71C35.2401 356.24 27.4101 343.53 22.6601 330.25C14.7401 309.63 11.5801 287.43 12.0301 265.44C11.9201 250.74 14.7601 236.06 19.4201 222.19C30.8701 187.82 49.5601 156.18 68.6601 125.85C83.5801 101.46 90.6701 72.1299 92.1901 44.1099C92.0001 72.9199 84.5501 101.72 70.1201 126.7C66.5101 132.93 62.6101 138.98 59.0101 145.21C41.2601 176.21 23.9001 208.6 17.3701 244.06C16.1101 251.12 15.9101 258.31 15.9901 265.47C16.0701 279.77 17.6701 294.1 21.3401 307.92C24.9401 321.83 31.0101 334.65 37.6401 347.39C40.9601 354.03 44.3001 360.68 46.3301 367.99L38.4001 369.72L38.3901 369.71Z" fill="#FF9058"/>
<path fill-rule="evenodd" clip-rule="evenodd" d="M73.1848 40.7684C53.3426 36.349 28.4602 31.6956 10.55 40.2699C-3.45 46.9699 -2.82 70.6499 8.28 87.0899C24.94 111.8 58.8 124.48 117.73 134.75C142.251 139.021 175.868 135.544 207.12 132.311C245.748 128.316 280.763 124.694 290.52 136.54C304.82 153.9 293.53 91.0499 282.7 73.6999C252.74 25.6999 168.01 -2.21008 103.77 0.139919C93.34 0.519919 73.2 1.42992 67.4 10.1699C60.1532 21.0858 76.284 33.1695 85.7078 39.74C93.1885 42.6191 100.78 45.208 108.45 47.49C111.363 48.2793 114.29 49.0585 117.223 49.8393C126.292 52.2532 135.416 54.6817 144.34 57.47C176.08 67.03 207.27 78.57 237.28 92.65L236.87 93.56C206.56 80.34 175.21 69.69 143.32 61.02C134.45 58.5141 125.585 56.4071 116.665 54.287C113.518 53.539 110.364 52.7893 107.2 52.02C95.6505 48.9164 84.2977 45.1571 73.1848 40.7684Z" fill="#FF9058"/>
<path d="M25.1907 451.97C24.8207 451.97 24.5207 451.85 24.2907 451.6C24.0607 451.35 23.9507 451.05 23.9507 450.67V439.37C23.9507 438.98 24.0607 438.67 24.2907 438.43C24.5207 438.19 24.8207 438.07 25.1907 438.07C25.5607 438.07 25.8907 438.19 26.1307 438.43C26.3707 438.67 26.4907 438.98 26.4907 439.37V450.67C26.4907 451.04 26.3707 451.35 26.1307 451.6C25.8907 451.85 25.5807 451.97 25.1907 451.97ZM26.1507 445.9V443.62H35.0607V445.9H26.1507ZM35.6207 451.97C35.2507 451.97 34.9407 451.85 34.6907 451.6C34.4407 451.35 34.3207 451.05 34.3207 450.67V439.37C34.3207 438.98 34.4407 438.67 34.6907 438.43C34.9407 438.19 35.2407 438.07 35.6207 438.07C36.0007 438.07 36.3107 438.19 36.5307 438.43C36.7507 438.67 36.8607 438.98 36.8607 439.37V450.67C36.8607 451.04 36.7507 451.35 36.5307 451.6C36.3107 451.85 36.0107 451.97 35.6207 451.97Z" fill="#FF9058"/>
<path d="M47.9605 452.07C46.5505 452.07 45.3105 451.77 44.2105 451.17C43.1105 450.57 42.2605 449.74 41.6505 448.68C41.0305 447.62 40.7205 446.41 40.7205 445.04C40.7205 443.67 41.0105 442.43 41.6005 441.37C42.1905 440.31 42.9905 439.48 44.0205 438.88C45.0505 438.28 46.2405 437.98 47.5705 437.98C48.9005 437.98 50.0205 438.27 50.9705 438.86C51.9205 439.44 52.6405 440.25 53.1405 441.27C53.6405 442.29 53.8905 443.48 53.8905 444.81C53.8905 445.13 53.7805 445.4 53.5605 445.61C53.3405 445.82 53.0605 445.93 52.7205 445.93H42.4905V443.9H52.6505L51.6105 444.61C51.5905 443.76 51.4205 443.01 51.1005 442.34C50.7805 441.67 50.3205 441.14 49.7305 440.75C49.1405 440.36 48.4205 440.17 47.5705 440.17C46.6105 440.17 45.7805 440.38 45.0905 440.8C44.4005 441.22 43.8805 441.8 43.5305 442.54C43.1805 443.28 43.0005 444.11 43.0005 445.04C43.0005 445.97 43.2105 446.8 43.6305 447.53C44.0505 448.26 44.6405 448.83 45.3805 449.26C46.1205 449.68 46.9805 449.89 47.9405 449.89C48.4605 449.89 49.0005 449.79 49.5505 449.6C50.1005 449.41 50.5405 449.18 50.8805 448.93C51.1305 448.74 51.4105 448.65 51.7105 448.64C52.0105 448.64 52.2605 448.72 52.4805 448.91C52.7705 449.16 52.9205 449.44 52.9405 449.75C52.9605 450.05 52.8205 450.32 52.5305 450.54C51.9505 451 51.2405 451.37 50.3805 451.66C49.5305 451.95 48.7105 452.09 47.9305 452.09L47.9605 452.07Z" fill="#FF9058"/>
<path d="M58.5007 452C58.1307 452 57.8207 451.88 57.5707 451.63C57.3207 451.38 57.2007 451.08 57.2007 450.7V439.4C57.2007 439.01 57.3207 438.7 57.5707 438.46C57.8207 438.22 58.1207 438.1 58.5007 438.1C58.8807 438.1 59.2007 438.22 59.4407 438.46C59.6807 438.7 59.8007 439.01 59.8007 439.4V450.7C59.8007 451.07 59.6807 451.38 59.4407 451.63C59.2007 451.88 58.8907 452 58.5007 452ZM66.9807 452C66.6107 452 66.3007 451.88 66.0507 451.63C65.8007 451.38 65.6807 451.08 65.6807 450.7V443.44C65.6807 442.37 65.4207 441.58 64.8907 441.07C64.3607 440.56 63.6807 440.3 62.8307 440.3C61.9807 440.3 61.2207 440.6 60.6507 441.21C60.0707 441.82 59.7907 442.6 59.7907 443.55H58.1907C58.1907 442.45 58.4107 441.48 58.8507 440.64C59.2907 439.8 59.9007 439.15 60.6807 438.67C61.4607 438.2 62.3507 437.96 63.3507 437.96C64.3507 437.96 65.1707 438.17 65.9107 438.59C66.6507 439.01 67.2307 439.63 67.6507 440.46C68.0607 441.28 68.2707 442.28 68.2707 443.44V450.7C68.2707 451.07 68.1507 451.38 67.9107 451.63C67.6707 451.88 67.3607 452 66.9707 452H66.9807ZM75.4307 452C75.0607 452 74.7507 451.88 74.5007 451.63C74.2507 451.38 74.1307 451.08 74.1307 450.7V443.44C74.1307 442.37 73.8707 441.58 73.3407 441.07C72.8207 440.55 72.1307 440.3 71.2807 440.3C70.4307 440.3 69.6807 440.6 69.1107 441.21C68.5407 441.82 68.2607 442.6 68.2607 443.55H66.1507C66.1507 442.45 66.3907 441.48 66.8607 440.64C67.3307 439.8 68.0007 439.15 68.8507 438.67C69.7007 438.2 70.6807 437.96 71.7807 437.96C72.7407 437.96 73.6007 438.17 74.3407 438.59C75.0807 439.01 75.6607 439.63 76.0807 440.46C76.4907 441.28 76.7007 442.28 76.7007 443.44V450.7C76.7007 451.07 76.5807 451.38 76.3407 451.63C76.1007 451.88 75.7907 452 75.4007 452H75.4307Z" fill="#FF9058"/>
<path d="M89.7507 451.97C89.3807 451.97 89.0707 451.85 88.8207 451.6C88.5707 451.35 88.4507 451.05 88.4507 450.67V439.37C88.4507 438.98 88.5707 438.67 88.8207 438.43C89.0707 438.19 89.3707 438.07 89.7507 438.07C90.2907 438.07 90.7507 438.33 91.1207 438.86L96.3807 446.45L101.641 438.86C102.011 438.34 102.471 438.07 103.011 438.07C103.401 438.07 103.711 438.19 103.951 438.43C104.191 438.67 104.311 438.98 104.311 439.37V450.67C104.311 451.04 104.191 451.35 103.951 451.6C103.711 451.85 103.401 451.97 103.011 451.97C102.621 451.97 102.331 451.85 102.081 451.6C101.831 451.35 101.711 451.05 101.711 450.67V441.43L102.371 441.63L97.7007 448.23C97.2807 448.82 96.8207 449.11 96.3307 449.11C95.8407 449.11 95.3907 448.81 94.9807 448.23L90.3807 441.63L91.0407 441.43V450.67C91.0407 451.04 90.9207 451.35 90.6807 451.6C90.4407 451.85 90.1307 451.97 89.7407 451.97H89.7507Z" fill="#FF9058"/>
<path d="M115.391 452.07C113.981 452.07 112.741 451.77 111.641 451.17C110.541 450.57 109.691 449.74 109.081 448.68C108.461 447.62 108.151 446.41 108.151 445.04C108.151 443.67 108.441 442.43 109.031 441.37C109.621 440.31 110.421 439.48 111.451 438.88C112.481 438.28 113.671 437.98 115.001 437.98C116.331 437.98 117.451 438.27 118.401 438.86C119.351 439.44 120.071 440.25 120.571 441.27C121.071 442.29 121.321 443.48 121.321 444.81C121.321 445.13 121.211 445.4 120.991 445.61C120.771 445.82 120.491 445.93 120.151 445.93H109.921V443.9H120.081L119.041 444.61C119.021 443.76 118.851 443.01 118.531 442.34C118.211 441.67 117.751 441.14 117.161 440.75C116.571 440.36 115.851 440.17 115.001 440.17C114.041 440.17 113.211 440.38 112.521 440.8C111.831 441.22 111.311 441.8 110.961 442.54C110.611 443.28 110.431 444.11 110.431 445.04C110.431 445.97 110.641 446.8 111.061 447.53C111.481 448.26 112.071 448.83 112.811 449.26C113.551 449.68 114.411 449.89 115.371 449.89C115.891 449.89 116.431 449.79 116.981 449.6C117.531 449.41 117.971 449.18 118.311 448.93C118.561 448.74 118.841 448.65 119.141 448.64C119.441 448.64 119.691 448.72 119.911 448.91C120.201 449.16 120.351 449.44 120.371 449.75C120.391 450.05 120.251 450.32 119.961 450.54C119.381 451 118.671 451.37 117.811 451.66C116.961 451.95 116.141 452.09 115.361 452.09L115.391 452.07Z" fill="#FF9058"/>
<path d="M125.931 457.91C125.561 457.91 125.251 457.79 125.001 457.54C124.751 457.29 124.631 456.99 124.631 456.61V445.03C124.651 443.69 124.961 442.49 125.571 441.42C126.181 440.35 127.011 439.51 128.061 438.89C129.111 438.27 130.291 437.96 131.611 437.96C132.931 437.96 134.141 438.27 135.191 438.89C136.241 439.51 137.071 440.35 137.691 441.42C138.311 442.49 138.621 443.69 138.621 445.03C138.621 446.37 138.341 447.56 137.771 448.62C137.201 449.68 136.431 450.52 135.451 451.13C134.471 451.75 133.361 452.06 132.121 452.06C131.121 452.06 130.201 451.85 129.371 451.44C128.531 451.03 127.821 450.46 127.221 449.75V456.61C127.221 456.98 127.101 457.29 126.861 457.54C126.621 457.79 126.311 457.91 125.921 457.91H125.931ZM131.621 449.79C132.481 449.79 133.251 449.58 133.931 449.17C134.611 448.76 135.141 448.19 135.541 447.47C135.941 446.75 136.141 445.94 136.141 445.05C136.141 444.16 135.941 443.32 135.541 442.6C135.141 441.88 134.601 441.31 133.931 440.9C133.251 440.48 132.481 440.28 131.621 440.28C130.761 440.28 130.011 440.49 129.321 440.9C128.631 441.31 128.101 441.88 127.711 442.6C127.321 443.32 127.131 444.14 127.131 445.05C127.131 445.96 127.321 446.76 127.711 447.47C128.101 448.19 128.641 448.76 129.321 449.17C130.011 449.59 130.771 449.79 131.621 449.79Z" fill="#FF9058"/>
<path d="M148.781 452.07C147.411 452.07 146.201 451.77 145.151 451.17C144.101 450.57 143.281 449.74 142.671 448.68C142.071 447.62 141.771 446.41 141.771 445.04C141.771 443.67 142.071 442.43 142.671 441.37C143.271 440.31 144.101 439.48 145.151 438.88C146.201 438.28 147.411 437.98 148.781 437.98C150.151 437.98 151.341 438.28 152.381 438.88C153.431 439.48 154.251 440.31 154.861 441.37C155.461 442.43 155.761 443.65 155.761 445.04C155.761 446.43 155.461 447.62 154.871 448.68C154.281 449.74 153.461 450.57 152.411 451.17C151.361 451.77 150.151 452.07 148.781 452.07ZM148.781 449.78C149.661 449.78 150.441 449.58 151.121 449.17C151.801 448.76 152.331 448.21 152.711 447.49C153.091 446.77 153.281 445.96 153.281 445.03C153.281 444.1 153.091 443.27 152.711 442.55C152.331 441.83 151.801 441.27 151.121 440.86C150.441 440.45 149.661 440.25 148.781 440.25C147.901 440.25 147.121 440.45 146.441 440.86C145.761 441.27 145.23 441.83 144.84 442.55C144.45 443.27 144.261 444.09 144.261 445.03C144.261 445.97 144.45 446.78 144.84 447.49C145.23 448.2 145.761 448.76 146.441 449.17C147.121 449.58 147.901 449.78 148.781 449.78Z" fill="#FF9058"/>
<path d="M160.911 452C160.541 452 160.231 451.88 159.981 451.63C159.731 451.38 159.611 451.08 159.611 450.7V439.38C159.611 438.99 159.731 438.68 159.981 438.44C160.231 438.2 160.531 438.08 160.911 438.08C161.291 438.08 161.611 438.2 161.851 438.44C162.091 438.68 162.211 438.99 162.211 439.38V450.7C162.211 451.07 162.091 451.38 161.851 451.63C161.611 451.88 161.301 452 160.911 452ZM171.351 452C170.981 452 170.671 451.88 170.421 451.63C170.171 451.38 170.051 451.08 170.051 450.7V444.45C170.051 443.49 169.871 442.7 169.521 442.09C169.171 441.48 168.691 441.03 168.091 440.73C167.491 440.43 166.801 440.29 166.021 440.29C165.311 440.29 164.671 440.43 164.091 440.72C163.511 441.01 163.061 441.39 162.721 441.88C162.381 442.36 162.211 442.92 162.211 443.54H160.611C160.611 442.47 160.871 441.52 161.381 440.68C161.891 439.84 162.601 439.18 163.501 438.69C164.401 438.2 165.401 437.95 166.521 437.95C167.641 437.95 168.731 438.2 169.661 438.7C170.581 439.2 171.311 439.93 171.841 440.9C172.371 441.87 172.641 443.05 172.641 444.45V450.7C172.641 451.07 172.521 451.38 172.271 451.63C172.021 451.88 171.721 452 171.341 452H171.351Z" fill="#FF9058"/>
<path d="M178.231 457.91C177.861 457.91 177.551 457.79 177.301 457.54C177.051 457.29 176.931 456.99 176.931 456.61V445.03C176.951 443.69 177.261 442.49 177.871 441.42C178.481 440.35 179.311 439.51 180.361 438.89C181.411 438.27 182.591 437.96 183.911 437.96C185.231 437.96 186.441 438.27 187.491 438.89C188.541 439.51 189.371 440.35 189.991 441.42C190.611 442.49 190.921 443.69 190.921 445.03C190.921 446.37 190.641 447.56 190.071 448.62C189.501 449.68 188.731 450.52 187.751 451.13C186.771 451.75 185.661 452.06 184.421 452.06C183.421 452.06 182.501 451.85 181.671 451.44C180.831 451.03 180.121 450.46 179.521 449.75V456.61C179.521 456.98 179.401 457.29 179.161 457.54C178.921 457.79 178.611 457.91 178.221 457.91H178.231ZM183.921 449.79C184.781 449.79 185.551 449.58 186.231 449.17C186.911 448.76 187.441 448.19 187.841 447.47C188.241 446.75 188.441 445.94 188.441 445.05C188.441 444.16 188.241 443.32 187.841 442.6C187.441 441.88 186.901 441.31 186.231 440.9C185.551 440.48 184.781 440.28 183.921 440.28C183.061 440.28 182.311 440.49 181.621 440.9C180.931 441.31 180.401 441.88 180.011 442.6C179.621 443.32 179.431 444.14 179.431 445.05C179.431 445.96 179.621 446.76 180.011 447.47C180.401 448.19 180.941 448.76 181.621 449.17C182.311 449.59 183.071 449.79 183.921 449.79Z" fill="#FF9058"/>
<path d="M200.62 452.1C199.45 452.1 198.41 451.85 197.49 451.35C196.57 450.85 195.84 450.12 195.31 449.15C194.78 448.18 194.51 447 194.51 445.6V439.35C194.51 438.98 194.63 438.67 194.88 438.42C195.13 438.17 195.43 438.05 195.81 438.05C196.19 438.05 196.49 438.17 196.74 438.42C196.99 438.67 197.11 438.97 197.11 439.35V445.6C197.11 446.55 197.29 447.33 197.64 447.95C198 448.57 198.48 449.03 199.09 449.32C199.7 449.62 200.38 449.76 201.15 449.76C201.92 449.76 202.53 449.62 203.09 449.33C203.66 449.04 204.11 448.65 204.45 448.16C204.79 447.67 204.96 447.12 204.96 446.51H206.56C206.56 447.56 206.3 448.51 205.79 449.35C205.27 450.2 204.57 450.87 203.68 451.36C202.79 451.85 201.78 452.1 200.65 452.1H200.62ZM206.23 451.97C205.86 451.97 205.55 451.85 205.3 451.6C205.05 451.35 204.93 451.05 204.93 450.67V439.35C204.93 438.96 205.05 438.65 205.3 438.41C205.55 438.17 205.85 438.05 206.23 438.05C206.61 438.05 206.93 438.17 207.17 438.41C207.41 438.65 207.53 438.96 207.53 439.35V450.67C207.53 451.04 207.41 451.35 207.17 451.6C206.93 451.85 206.62 451.97 206.23 451.97Z" fill="#FF9058"/>
<path d="M220.88 451.97C220.52 451.97 220.23 451.85 219.99 451.6C219.75 451.35 219.63 451.05 219.63 450.67V447.32H216.05V446.99C215.15 446.99 214.36 446.81 213.66 446.46C212.97 446.1 212.42 445.61 212.04 444.99C211.65 444.36 211.46 443.64 211.46 442.81C211.46 441.91 211.68 441.11 212.11 440.4C212.54 439.69 213.13 439.13 213.89 438.71C214.64 438.3 215.51 438.09 216.49 438.09H220.88C221.27 438.09 221.58 438.21 221.82 438.45C222.06 438.69 222.18 439 222.18 439.39V450.71C222.16 451.08 222.04 451.39 221.81 451.62C221.58 451.86 221.27 451.98 220.88 451.98V451.97ZM211.87 451.67C211.6 451.43 211.47 451.17 211.49 450.88C211.51 450.59 211.61 450.33 211.79 450.09L214.89 446.05H218.27L213.93 451.46C213.64 451.83 213.29 452.01 212.86 451.99C212.44 451.97 212.11 451.86 211.87 451.66V451.67ZM216.49 445.2H219.64V440.5H216.49C215.81 440.5 215.22 440.72 214.71 441.15C214.2 441.58 213.95 442.14 213.95 442.81C213.95 443.52 214.2 444.1 214.71 444.54C215.22 444.98 215.81 445.2 216.49 445.2Z" fill="#FF9058"/>
<path d="M228.04 452C227.67 452 227.36 451.88 227.11 451.63C226.86 451.38 226.74 451.08 226.74 450.7V439.4C226.74 439.01 226.86 438.7 227.11 438.46C227.36 438.22 227.66 438.1 228.04 438.1C228.42 438.1 228.74 438.22 228.98 438.46C229.22 438.7 229.34 439.01 229.34 439.4V450.7C229.34 451.07 229.22 451.38 228.98 451.63C228.74 451.88 228.43 452 228.04 452ZM236.52 452C236.15 452 235.84 451.88 235.59 451.63C235.34 451.38 235.22 451.08 235.22 450.7V443.44C235.22 442.37 234.96 441.58 234.43 441.07C233.9 440.56 233.22 440.3 232.37 440.3C231.52 440.3 230.76 440.6 230.19 441.21C229.61 441.82 229.33 442.6 229.33 443.55H227.73C227.73 442.45 227.95 441.48 228.39 440.64C228.83 439.8 229.44 439.15 230.22 438.67C231 438.2 231.89 437.96 232.89 437.96C233.89 437.96 234.71 438.17 235.45 438.59C236.19 439.01 236.77 439.63 237.19 440.46C237.6 441.28 237.81 442.28 237.81 443.44V450.7C237.81 451.07 237.69 451.38 237.45 451.63C237.21 451.88 236.9 452 236.51 452H236.52ZM244.97 452C244.6 452 244.29 451.88 244.04 451.63C243.79 451.38 243.67 451.08 243.67 450.7V443.44C243.67 442.37 243.41 441.58 242.88 441.07C242.35 440.55 241.67 440.3 240.82 440.3C239.97 440.3 239.22 440.6 238.65 441.21C238.08 441.82 237.8 442.6 237.8 443.55H235.69C235.69 442.45 235.93 441.48 236.4 440.64C236.87 439.8 237.54 439.15 238.39 438.67C239.24 438.2 240.22 437.96 241.32 437.96C242.28 437.96 243.14 438.17 243.88 438.59C244.63 439.01 245.2 439.63 245.62 440.46C246.04 441.29 246.24 442.28 246.24 443.44V450.7C246.24 451.07 246.12 451.38 245.88 451.63C245.64 451.88 245.33 452 244.94 452H244.97Z" fill="#FF9058"/>
<path d="M256.401 452.1C255.231 452.1 254.191 451.85 253.271 451.35C252.351 450.85 251.621 450.12 251.091 449.15C250.561 448.18 250.291 447 250.291 445.6V439.35C250.291 438.98 250.411 438.67 250.661 438.42C250.911 438.17 251.211 438.05 251.591 438.05C251.971 438.05 252.271 438.17 252.521 438.42C252.771 438.67 252.891 438.97 252.891 439.35V445.6C252.891 446.55 253.071 447.33 253.421 447.95C253.781 448.57 254.261 449.03 254.871 449.32C255.481 449.62 256.161 449.76 256.931 449.76C257.701 449.76 258.311 449.62 258.871 449.33C259.441 449.04 259.891 448.65 260.231 448.16C260.571 447.67 260.741 447.12 260.741 446.51H262.341C262.341 447.56 262.081 448.51 261.571 449.35C261.051 450.2 260.351 450.87 259.461 451.36C258.571 451.85 257.561 452.1 256.431 452.1H256.401ZM262.011 451.97C261.641 451.97 261.331 451.85 261.081 451.6C260.831 451.35 260.711 451.05 260.711 450.67V439.35C260.711 438.96 260.831 438.65 261.081 438.41C261.331 438.17 261.631 438.05 262.011 438.05C262.391 438.05 262.711 438.17 262.951 438.41C263.191 438.65 263.311 438.96 263.311 439.35V450.67C263.311 451.04 263.191 451.35 262.951 451.6C262.711 451.85 262.401 451.97 262.011 451.97Z" fill="#FF9058"/>
<path d="M273.721 452.1C272.551 452.1 271.511 451.85 270.591 451.35C269.671 450.85 268.941 450.12 268.411 449.15C267.881 448.18 267.611 447 267.611 445.6V439.35C267.611 438.98 267.731 438.67 267.981 438.42C268.231 438.17 268.531 438.05 268.911 438.05C269.291 438.05 269.591 438.17 269.841 438.42C270.091 438.67 270.211 438.97 270.211 439.35V445.6C270.211 446.55 270.391 447.33 270.741 447.95C271.101 448.57 271.581 449.03 272.191 449.32C272.801 449.62 273.481 449.76 274.251 449.76C275.021 449.76 275.631 449.62 276.191 449.33C276.761 449.04 277.211 448.65 277.551 448.16C277.891 447.67 278.061 447.12 278.061 446.51H279.661C279.661 447.56 279.401 448.51 278.891 449.35C278.371 450.2 277.671 450.87 276.781 451.36C275.891 451.85 274.881 452.1 273.751 452.1H273.721ZM274.251 436.26C273.391 436.26 272.611 436.11 271.911 435.82C271.221 435.52 270.671 435.12 270.261 434.6C269.851 434.08 269.651 433.5 269.651 432.86C269.651 432.5 269.761 432.21 269.981 431.97C270.201 431.73 270.471 431.61 270.791 431.61C271.111 431.61 271.401 431.73 271.621 431.97C271.831 432.21 271.941 432.5 271.941 432.86C271.941 433.28 272.161 433.64 272.601 433.94C273.041 434.24 273.591 434.38 274.251 434.38C274.911 434.38 275.461 434.23 275.901 433.94C276.341 433.64 276.561 433.28 276.561 432.86C276.561 432.5 276.671 432.21 276.891 431.97C277.111 431.73 277.381 431.61 277.701 431.61C278.041 431.61 278.311 431.73 278.531 431.97C278.741 432.21 278.851 432.5 278.851 432.86C278.851 433.5 278.651 434.08 278.241 434.6C277.831 435.12 277.291 435.52 276.601 435.82C275.911 436.12 275.131 436.26 274.251 436.26ZM279.331 451.98C278.961 451.98 278.651 451.86 278.401 451.61C278.151 451.36 278.031 451.06 278.031 450.68V439.36C278.031 438.97 278.151 438.66 278.401 438.42C278.651 438.18 278.951 438.06 279.331 438.06C279.711 438.06 280.031 438.18 280.271 438.42C280.511 438.66 280.631 438.97 280.631 439.36V450.68C280.631 451.05 280.511 451.36 280.271 451.61C280.031 451.86 279.721 451.98 279.331 451.98Z" fill="#FF9058"/>
<path d="M21.0006 482.46C20.6306 482.46 20.3206 482.34 20.0706 482.09C19.8206 481.84 19.7006 481.54 19.7006 481.16V476.46H17.9706L14.0906 482.07C13.9206 482.31 13.6506 482.43 13.2606 482.44C12.8706 482.45 12.5806 482.34 12.3606 482.12C12.1106 481.87 11.9906 481.6 12.0006 481.33C12.0206 481.06 12.1106 480.8 12.2806 480.54L15.8306 475.29L12.5606 470.39C12.3906 470.12 12.3106 469.84 12.3206 469.56C12.3206 469.28 12.4606 469.02 12.7106 468.79C12.9306 468.59 13.2306 468.49 13.6106 468.5C13.9906 468.5 14.2706 468.66 14.4306 468.94L17.8106 474.17H19.6906V469.83C19.6906 469.44 19.8106 469.13 20.0606 468.89C20.3106 468.65 20.6106 468.53 20.9906 468.53C21.3706 468.53 21.6906 468.65 21.9306 468.89C22.1706 469.13 22.2906 469.44 22.2906 469.83V474.17H24.1906L27.5406 468.94C27.7306 468.65 28.0106 468.5 28.3806 468.5C28.7506 468.5 29.0506 468.59 29.2706 468.79C29.5206 469.03 29.6606 469.29 29.6806 469.56C29.7006 469.84 29.6106 470.11 29.4306 470.39L26.1606 475.29L29.7106 480.54C29.8806 480.79 29.9706 481.06 29.9906 481.33C30.0106 481.6 29.8906 481.86 29.6306 482.12C29.4106 482.34 29.1106 482.45 28.7306 482.44C28.3506 482.43 28.0706 482.31 27.9006 482.07L24.0406 476.46H22.2906V481.16C22.2906 481.53 22.1706 481.84 21.9306 482.09C21.6906 482.34 21.3806 482.46 20.9906 482.46H21.0006Z" fill="#FF9058"/>
<path d="M37.6807 482.54C36.4407 482.54 35.3407 482.23 34.3507 481.61C33.3707 480.99 32.5907 480.15 32.0307 479.1C31.4607 478.04 31.1807 476.85 31.1807 475.51C31.1807 474.17 31.4907 472.97 32.1107 471.9C32.7307 470.83 33.5707 469.99 34.6207 469.37C35.6807 468.75 36.8707 468.44 38.1907 468.44C39.5107 468.44 40.6907 468.75 41.7407 469.37C42.7907 469.99 43.6207 470.83 44.2407 471.9C44.8607 472.97 45.1707 474.17 45.1707 475.51H44.1807C44.1807 476.85 43.9007 478.04 43.3307 479.1C42.7607 480.16 41.9907 481 41.0107 481.61C40.0307 482.23 38.9207 482.54 37.6807 482.54ZM38.1907 480.25C39.0507 480.25 39.8207 480.04 40.5007 479.63C41.1807 479.22 41.7107 478.65 42.1007 477.93C42.4907 477.21 42.6807 476.4 42.6807 475.51C42.6807 474.62 42.4907 473.78 42.1007 473.06C41.7107 472.34 41.1807 471.77 40.5007 471.36C39.8207 470.94 39.0507 470.74 38.1907 470.74C37.3307 470.74 36.5807 470.95 35.8907 471.36C35.2007 471.77 34.6607 472.34 34.2707 473.06C33.8707 473.78 33.6707 474.6 33.6707 475.51C33.6707 476.42 33.8707 477.22 34.2707 477.93C34.6707 478.65 35.2107 479.22 35.8907 479.63C36.5807 480.05 37.3407 480.25 38.1907 480.25ZM43.8807 482.46C43.5107 482.46 43.2007 482.34 42.9507 482.09C42.7007 481.84 42.5807 481.54 42.5807 481.16V477.28L43.0607 474.59L45.1707 475.5V481.16C45.1707 481.53 45.0507 481.84 44.8007 482.09C44.5507 482.34 44.2507 482.46 43.8707 482.46H43.8807Z" fill="#FF9058"/>
<path d="M48.3906 475.99L48.4206 473.12C48.4406 471.12 48.9906 469.29 50.0806 467.64C51.1706 465.98 52.8706 464.64 55.1706 463.6L59.9206 461.49C60.2606 461.35 60.5606 461.33 60.8306 461.43C61.1006 461.52 61.3006 461.72 61.4106 462.03C61.5306 462.35 61.5606 462.64 61.5006 462.91C61.4406 463.17 61.1906 463.41 60.7506 463.61L55.6006 465.97C54.4106 466.51 53.4406 467.16 52.6806 467.9C51.9206 468.65 51.3606 469.48 50.9906 470.4C50.6306 471.32 50.4306 472.32 50.3906 473.38L50.3406 476H48.3906V475.99ZM55.3706 482.54C54.0206 482.54 52.8106 482.26 51.7606 481.7C50.7106 481.14 49.8906 480.37 49.3006 479.38C48.7106 478.39 48.4006 477.26 48.3906 475.99H49.6306C49.6306 474.7 49.9006 473.57 50.4306 472.6C50.9606 471.63 51.7006 470.86 52.6406 470.3C53.5806 469.74 54.6606 469.46 55.8806 469.46C57.1006 469.46 58.1806 469.74 59.1206 470.3C60.0606 470.86 60.8006 471.62 61.3306 472.6C61.8606 473.58 62.1306 474.7 62.1306 475.99C62.1306 477.28 61.8406 478.39 61.2706 479.38C60.6906 480.37 59.9006 481.14 58.8806 481.7C57.8606 482.26 56.7006 482.54 55.3806 482.54H55.3706ZM55.3706 480.25C56.2206 480.25 56.9606 480.07 57.5906 479.7C58.2206 479.34 58.7206 478.83 59.0906 478.19C59.4506 477.55 59.6406 476.81 59.6406 475.98C59.6406 475.15 59.4606 474.42 59.0906 473.78C58.7306 473.15 58.2306 472.65 57.5906 472.28C56.9506 471.91 56.2106 471.73 55.3706 471.73C54.5306 471.73 53.7106 471.91 53.0306 472.28C52.3506 472.64 51.8206 473.14 51.4406 473.78C51.0606 474.42 50.8706 475.15 50.8706 475.98C50.8706 476.81 51.0606 477.55 51.4406 478.19C51.8206 478.83 52.3506 479.34 53.0306 479.7C53.7106 480.06 54.4906 480.25 55.3706 480.25Z" fill="#FF9058"/>
<path d="M72.5105 482.54C71.1005 482.54 69.8605 482.24 68.7605 481.64C67.6605 481.04 66.8105 480.21 66.2005 479.15C65.5805 478.09 65.2705 476.88 65.2705 475.51C65.2705 474.14 65.5605 472.9 66.1505 471.84C66.7405 470.78 67.5405 469.95 68.5705 469.35C69.6005 468.75 70.7905 468.45 72.1205 468.45C73.4505 468.45 74.5705 468.74 75.5205 469.33C76.4705 469.91 77.1905 470.72 77.6905 471.74C78.1905 472.76 78.4405 473.95 78.4405 475.28C78.4405 475.6 78.3305 475.87 78.1105 476.08C77.8905 476.29 77.6105 476.4 77.2705 476.4H67.0405V474.37H77.2005L76.1605 475.08C76.1405 474.23 75.9705 473.48 75.6505 472.81C75.3305 472.14 74.8705 471.61 74.2805 471.22C73.6905 470.83 72.9705 470.64 72.1205 470.64C71.1605 470.64 70.3305 470.85 69.6405 471.27C68.9505 471.69 68.4305 472.27 68.0805 473.01C67.7305 473.75 67.5505 474.58 67.5505 475.51C67.5505 476.44 67.7605 477.27 68.1805 478C68.6005 478.73 69.1905 479.3 69.9305 479.73C70.6705 480.15 71.5305 480.36 72.4905 480.36C73.0105 480.36 73.5505 480.26 74.1005 480.07C74.6505 479.88 75.0905 479.65 75.4305 479.4C75.6805 479.21 75.9605 479.12 76.2605 479.11C76.5605 479.11 76.8105 479.19 77.0305 479.38C77.3205 479.63 77.4705 479.91 77.4905 480.22C77.5105 480.52 77.3705 480.79 77.0805 481.01C76.5005 481.47 75.7905 481.84 74.9305 482.13C74.0805 482.42 73.2605 482.56 72.4805 482.56L72.5105 482.54Z" fill="#FF9058"/>
<path d="M95.4905 482.54C94.1205 482.54 92.9105 482.24 91.8605 481.64C90.8105 481.04 89.9905 480.21 89.3805 479.15C88.7805 478.09 88.4805 476.88 88.4805 475.51C88.4805 474.14 88.7805 472.9 89.3805 471.84C89.9805 470.78 90.8105 469.95 91.8605 469.35C92.9105 468.75 94.1205 468.45 95.4905 468.45C96.8605 468.45 98.0505 468.75 99.0905 469.35C100.14 469.95 100.96 470.78 101.57 471.84C102.17 472.9 102.47 474.12 102.47 475.51C102.47 476.9 102.17 478.09 101.58 479.15C100.99 480.21 100.17 481.04 99.1205 481.64C98.0705 482.24 96.8605 482.54 95.4905 482.54ZM95.4905 480.25C96.3705 480.25 97.1505 480.05 97.8305 479.64C98.5105 479.23 99.0405 478.68 99.4205 477.96C99.8005 477.24 99.9905 476.43 99.9905 475.5C99.9905 474.57 99.8005 473.74 99.4205 473.02C99.0405 472.3 98.5105 471.74 97.8305 471.33C97.1505 470.92 96.3705 470.72 95.4905 470.72C94.6105 470.72 93.8305 470.92 93.1505 471.33C92.4705 471.74 91.9405 472.3 91.5505 473.02C91.1605 473.74 90.9705 474.56 90.9705 475.5C90.9705 476.44 91.1605 477.25 91.5505 477.96C91.9405 478.67 92.4705 479.23 93.1505 479.64C93.8305 480.05 94.6105 480.25 95.4905 480.25Z" fill="#FF9058"/>
<path d="M110.541 478.28C109.321 478.28 108.311 478 107.521 477.44C106.731 476.88 106.141 476.12 105.761 475.14C105.381 474.17 105.191 473.05 105.191 471.78V469.85C105.191 469.46 105.311 469.15 105.561 468.91C105.811 468.67 106.111 468.55 106.491 468.55C106.871 468.55 107.191 468.67 107.431 468.91C107.671 469.15 107.791 469.46 107.791 469.85V471.78C107.791 473 108.031 474 108.511 474.78C108.991 475.56 109.841 475.95 111.061 475.95C112.021 475.95 112.821 475.79 113.431 475.47C114.051 475.15 114.361 474.73 114.361 474.23H115.711C115.711 475.03 115.491 475.73 115.051 476.34C114.611 476.95 114.001 477.43 113.241 477.77C112.471 478.12 111.581 478.29 110.561 478.29L110.541 478.28ZM115.641 482.44C115.271 482.44 114.961 482.32 114.711 482.07C114.461 481.82 114.341 481.52 114.341 481.14V469.84C114.341 469.45 114.461 469.14 114.711 468.9C114.961 468.66 115.261 468.54 115.641 468.54C116.021 468.54 116.341 468.66 116.581 468.9C116.821 469.14 116.941 469.45 116.941 469.84V481.14C116.941 481.51 116.821 481.82 116.581 482.07C116.341 482.32 116.031 482.44 115.641 482.44Z" fill="#FF9058"/>
<path d="M128.041 482.54C126.631 482.54 125.391 482.24 124.291 481.64C123.191 481.04 122.341 480.21 121.731 479.15C121.111 478.09 120.801 476.88 120.801 475.51C120.801 474.14 121.091 472.9 121.681 471.84C122.271 470.78 123.071 469.95 124.101 469.35C125.131 468.75 126.321 468.45 127.651 468.45C128.981 468.45 130.101 468.74 131.051 469.33C132.001 469.91 132.721 470.72 133.221 471.74C133.721 472.76 133.971 473.95 133.971 475.28C133.971 475.6 133.861 475.87 133.641 476.08C133.421 476.29 133.141 476.4 132.801 476.4H122.571V474.37H132.731L131.691 475.08C131.671 474.23 131.501 473.48 131.181 472.81C130.861 472.14 130.401 471.61 129.811 471.22C129.221 470.83 128.501 470.64 127.651 470.64C126.691 470.64 125.861 470.85 125.171 471.27C124.481 471.69 123.961 472.27 123.611 473.01C123.261 473.75 123.081 474.58 123.081 475.51C123.081 476.44 123.291 477.27 123.711 478C124.131 478.73 124.721 479.3 125.461 479.73C126.201 480.15 127.061 480.36 128.021 480.36C128.541 480.36 129.081 480.26 129.631 480.07C130.181 479.88 130.621 479.65 130.961 479.4C131.211 479.21 131.491 479.12 131.791 479.11C132.091 479.11 132.341 479.19 132.561 479.38C132.851 479.63 133.001 479.91 133.021 480.22C133.041 480.52 132.901 480.79 132.611 481.01C132.031 481.47 131.321 481.84 130.461 482.13C129.611 482.42 128.791 482.56 128.011 482.56L128.041 482.54Z" fill="#FF9058"/>
<path d="M138.521 482.44C138.151 482.44 137.851 482.32 137.621 482.07C137.391 481.82 137.281 481.52 137.281 481.14V469.84C137.281 469.45 137.391 469.14 137.621 468.9C137.851 468.66 138.151 468.54 138.521 468.54C138.891 468.54 139.221 468.66 139.461 468.9C139.701 469.14 139.821 469.45 139.821 469.84V481.14C139.821 481.51 139.701 481.82 139.461 482.07C139.221 482.32 138.911 482.44 138.521 482.44ZM139.481 476.37V474.09H148.391V476.37H139.481ZM148.951 482.44C148.581 482.44 148.271 482.32 148.021 482.07C147.771 481.82 147.651 481.52 147.651 481.14V469.84C147.651 469.45 147.771 469.14 148.021 468.9C148.271 468.66 148.571 468.54 148.951 468.54C149.331 468.54 149.641 468.66 149.861 468.9C150.081 469.14 150.191 469.45 150.191 469.84V481.14C150.191 481.51 150.081 481.82 149.861 482.07C149.641 482.32 149.341 482.44 148.951 482.44Z" fill="#FF9058"/>
<path d="M161.041 482.67C159.771 482.67 158.671 482.44 157.731 481.98C156.791 481.52 156.061 480.88 155.551 480.04C155.031 479.2 154.781 478.22 154.781 477.08V469.82C154.811 469.46 154.951 469.16 155.201 468.92C155.451 468.67 155.741 468.55 156.081 468.55C156.451 468.55 156.761 468.67 157.011 468.92C157.261 469.17 157.381 469.47 157.381 469.85V472.69H161.541C162.641 472.69 163.631 472.88 164.501 473.26C165.371 473.64 166.061 474.19 166.571 474.91C167.081 475.63 167.331 476.49 167.331 477.49C167.331 478.49 167.071 479.38 166.561 480.16C166.041 480.94 165.321 481.55 164.391 482C163.461 482.45 162.351 482.67 161.061 482.67H161.041ZM161.011 480.28C162.091 480.28 163.001 480.05 163.731 479.58C164.461 479.12 164.821 478.42 164.821 477.49C164.821 476.61 164.511 475.95 163.881 475.52C163.251 475.09 162.471 474.87 161.521 474.87H157.361V477.03C157.361 477.64 157.521 478.19 157.841 478.68C158.161 479.17 158.601 479.56 159.151 479.85C159.701 480.14 160.321 480.28 161.021 480.28H161.011Z" fill="#FF9058"/>
<path d="M182.471 482.54C181.401 482.54 180.451 482.37 179.611 482.04C178.771 481.71 178.111 481.25 177.631 480.66C177.151 480.07 176.911 479.39 176.911 478.63C176.911 477.87 177.131 477.22 177.561 476.67C177.991 476.13 178.621 475.67 179.441 475.3C180.261 474.93 181.251 474.63 182.401 474.41C183.551 474.17 184.331 473.89 184.741 473.56C185.151 473.23 185.351 472.8 185.351 472.28C185.351 471.76 185.081 471.34 184.541 471.07C184.001 470.81 183.371 470.68 182.661 470.68C182.071 470.68 181.481 470.77 180.901 470.96C180.321 471.15 179.831 471.42 179.441 471.77C179.191 472.01 178.911 472.17 178.601 472.25C178.291 472.33 178.051 472.32 177.861 472.2C177.541 472 177.341 471.73 177.261 471.41C177.181 471.09 177.261 470.79 177.481 470.52C177.991 469.89 178.701 469.39 179.631 469.01C180.561 468.63 181.571 468.44 182.691 468.44C183.641 468.44 184.501 468.59 185.281 468.88C186.061 469.18 186.681 469.61 187.151 470.19C187.621 470.77 187.851 471.48 187.851 472.32C187.851 473.3 187.451 474.13 186.661 474.8C185.861 475.47 184.651 475.98 183.031 476.34C181.691 476.61 180.771 476.93 180.261 477.29C179.751 477.65 179.511 478.09 179.521 478.6C179.541 479.13 179.791 479.53 180.281 479.82C180.771 480.11 181.511 480.25 182.491 480.25C183.371 480.25 184.121 480.16 184.741 479.98C185.361 479.8 185.841 479.53 186.201 479.15C186.441 478.9 186.711 478.73 187.011 478.64C187.311 478.56 187.631 478.64 187.951 478.92C188.241 479.16 188.381 479.43 188.381 479.73C188.381 480.03 188.251 480.32 188.001 480.59C187.441 481.15 186.661 481.61 185.661 481.97C184.661 482.33 183.601 482.52 182.491 482.52L182.471 482.54Z" fill="#FF9058"/>
<path d="M192.831 488.38C192.461 488.38 192.151 488.26 191.901 488.01C191.651 487.76 191.531 487.46 191.531 487.08V475.5C191.551 474.16 191.861 472.96 192.471 471.89C193.081 470.82 193.911 469.98 194.961 469.36C196.011 468.74 197.191 468.43 198.511 468.43C199.831 468.43 201.041 468.74 202.091 469.36C203.141 469.98 203.971 470.82 204.591 471.89C205.211 472.96 205.521 474.16 205.521 475.5C205.521 476.84 205.241 478.03 204.671 479.09C204.101 480.15 203.331 480.99 202.351 481.6C201.371 482.22 200.261 482.53 199.021 482.53C198.021 482.53 197.101 482.32 196.271 481.91C195.431 481.5 194.721 480.93 194.131 480.22V487.08C194.131 487.45 194.011 487.76 193.771 488.01C193.531 488.26 193.221 488.38 192.831 488.38ZM198.521 480.26C199.381 480.26 200.151 480.05 200.831 479.64C201.511 479.23 202.041 478.66 202.441 477.94C202.841 477.22 203.041 476.41 203.041 475.52C203.041 474.63 202.841 473.79 202.441 473.07C202.041 472.35 201.501 471.78 200.831 471.37C200.151 470.95 199.381 470.75 198.521 470.75C197.661 470.75 196.911 470.96 196.221 471.37C195.531 471.78 195.001 472.35 194.611 473.07C194.221 473.79 194.031 474.61 194.031 475.52C194.031 476.43 194.221 477.23 194.611 477.94C195.001 478.66 195.541 479.23 196.221 479.64C196.911 480.06 197.671 480.26 198.521 480.26Z" fill="#FF9058"/>
<path d="M208.321 488.53C208.021 488.53 207.711 488.49 207.391 488.4C207.081 488.32 206.771 488.19 206.461 488.02C206.091 487.8 205.841 487.53 205.721 487.21C205.601 486.89 205.651 486.58 205.871 486.27C206.071 485.98 206.321 485.8 206.611 485.74C206.901 485.67 207.201 485.74 207.521 485.92C207.711 486.02 207.881 486.1 208.041 486.15C208.201 486.2 208.371 486.23 208.541 486.23C209.081 486.23 209.601 485.95 210.101 485.39C210.601 484.83 211.091 484 211.591 482.9L217.661 469.19C217.811 468.85 218.041 468.62 218.361 468.5C218.671 468.38 218.991 468.4 219.311 468.55C219.601 468.67 219.781 468.88 219.871 469.2C219.951 469.51 219.911 469.85 219.741 470.2L213.621 483.91C213.011 485.28 212.241 486.39 211.301 487.25C210.361 488.1 209.371 488.53 208.321 488.53ZM214.111 481.88C213.791 482.02 213.491 482.03 213.211 481.92C212.931 481.81 212.711 481.59 212.541 481.27L206.731 470.23C206.561 469.91 206.541 469.6 206.671 469.3C206.801 469 207.021 468.79 207.341 468.65C207.661 468.52 207.961 468.5 208.241 468.61C208.521 468.72 208.741 468.94 208.911 469.26L214.491 480.2C214.661 480.52 214.721 480.85 214.671 481.18C214.621 481.51 214.431 481.74 214.111 481.88Z" fill="#FF9058"/>
<path d="M228.321 482.54C226.971 482.54 225.761 482.23 224.701 481.61C223.641 480.99 222.811 480.15 222.211 479.1C221.611 478.04 221.311 476.85 221.311 475.51C221.311 474.17 221.611 472.92 222.201 471.85C222.791 470.78 223.601 469.95 224.641 469.35C225.671 468.75 226.861 468.45 228.191 468.45C229.191 468.45 230.101 468.64 230.931 469.02C231.761 469.4 232.501 469.97 233.161 470.73C233.401 471 233.481 471.28 233.411 471.57C233.341 471.86 233.161 472.11 232.851 472.33C232.611 472.5 232.351 472.55 232.061 472.5C231.771 472.45 231.511 472.29 231.271 472.06C230.441 471.18 229.411 470.74 228.171 470.74C227.311 470.74 226.551 470.94 225.891 471.34C225.231 471.74 224.711 472.29 224.341 473C223.971 473.71 223.781 474.55 223.781 475.51C223.781 476.42 223.971 477.24 224.351 477.95C224.731 478.66 225.261 479.22 225.941 479.64C226.621 480.06 227.401 480.26 228.301 480.26C228.891 480.26 229.411 480.19 229.861 480.04C230.311 479.9 230.721 479.67 231.091 479.37C231.361 479.15 231.641 479.03 231.931 479C232.221 478.97 232.471 479.06 232.691 479.24C232.981 479.48 233.141 479.74 233.171 480.04C233.201 480.34 233.101 480.6 232.871 480.84C231.651 481.97 230.131 482.54 228.301 482.54H228.321Z" fill="#FF9058"/>
<path d="M238.581 482.46C238.211 482.46 237.901 482.34 237.651 482.09C237.401 481.84 237.281 481.54 237.281 481.16V469.86C237.281 469.47 237.401 469.16 237.651 468.92C237.901 468.68 238.201 468.56 238.581 468.56C238.961 468.56 239.281 468.68 239.521 468.92C239.761 469.16 239.881 469.47 239.881 469.86V481.16C239.881 481.53 239.761 481.84 239.521 482.09C239.281 482.34 238.971 482.46 238.581 482.46ZM247.061 482.46C246.691 482.46 246.381 482.34 246.131 482.09C245.881 481.84 245.761 481.54 245.761 481.16V473.9C245.761 472.83 245.501 472.04 244.971 471.53C244.441 471.02 243.761 470.76 242.911 470.76C242.061 470.76 241.301 471.06 240.731 471.67C240.151 472.28 239.871 473.06 239.871 474.01H238.271C238.271 472.91 238.491 471.94 238.931 471.1C239.371 470.26 239.981 469.61 240.761 469.13C241.541 468.66 242.431 468.42 243.431 468.42C244.431 468.42 245.251 468.63 245.991 469.05C246.731 469.47 247.311 470.09 247.731 470.92C248.141 471.74 248.351 472.74 248.351 473.9V481.16C248.351 481.53 248.231 481.84 247.991 482.09C247.751 482.34 247.441 482.46 247.051 482.46H247.061ZM255.511 482.46C255.141 482.46 254.831 482.34 254.581 482.09C254.331 481.84 254.211 481.54 254.211 481.16V473.9C254.211 472.83 253.951 472.04 253.421 471.53C252.891 471.01 252.211 470.76 251.361 470.76C250.511 470.76 249.761 471.06 249.191 471.67C248.621 472.28 248.341 473.06 248.341 474.01H246.231C246.231 472.91 246.471 471.94 246.941 471.1C247.411 470.26 248.081 469.61 248.931 469.13C249.781 468.66 250.761 468.42 251.861 468.42C252.821 468.42 253.681 468.63 254.421 469.05C255.171 469.47 255.741 470.09 256.161 470.92C256.581 471.75 256.781 472.74 256.781 473.9V481.16C256.781 481.53 256.661 481.84 256.421 482.09C256.181 482.34 255.871 482.46 255.481 482.46H255.511Z" fill="#FF9058"/>
<path d="M262.341 482.44C261.971 482.44 261.671 482.32 261.441 482.07C261.211 481.82 261.101 481.52 261.101 481.14V469.84C261.101 469.45 261.211 469.14 261.441 468.9C261.671 468.66 261.971 468.54 262.341 468.54C262.711 468.54 263.041 468.66 263.281 468.9C263.521 469.14 263.641 469.45 263.641 469.84V481.14C263.641 481.51 263.521 481.82 263.281 482.07C263.041 482.32 262.731 482.44 262.341 482.44ZM263.301 476.37V474.09H272.211V476.37H263.301ZM272.771 482.44C272.401 482.44 272.091 482.32 271.841 482.07C271.591 481.82 271.471 481.52 271.471 481.14V469.84C271.471 469.45 271.591 469.14 271.841 468.9C272.091 468.66 272.391 468.54 272.771 468.54C273.151 468.54 273.461 468.66 273.681 468.9C273.901 469.14 274.011 469.45 274.011 469.84V481.14C274.011 481.51 273.901 481.82 273.681 482.07C273.461 482.32 273.151 482.44 272.771 482.44Z" fill="#FF9058"/>
<path d="M284.891 482.54C283.521 482.54 282.311 482.24 281.261 481.64C280.211 481.04 279.381 480.21 278.781 479.15C278.181 478.09 277.881 476.88 277.881 475.51C277.881 474.14 278.181 472.9 278.781 471.84C279.381 470.78 280.211 469.95 281.261 469.35C282.311 468.75 283.521 468.45 284.891 468.45C286.261 468.45 287.451 468.75 288.501 469.35C289.551 469.95 290.371 470.78 290.981 471.84C291.581 472.9 291.881 474.12 291.881 475.51C291.881 476.9 291.581 478.09 290.991 479.15C290.401 480.21 289.581 481.04 288.531 481.64C287.481 482.24 286.271 482.54 284.901 482.54H284.891ZM284.891 480.25C285.771 480.25 286.551 480.05 287.231 479.64C287.911 479.23 288.441 478.68 288.821 477.96C289.201 477.24 289.391 476.43 289.391 475.5C289.391 474.57 289.201 473.74 288.821 473.02C288.441 472.3 287.911 471.74 287.231 471.33C286.551 470.92 285.771 470.72 284.891 470.72C284.011 470.72 283.231 470.92 282.561 471.33C281.881 471.74 281.351 472.3 280.961 473.02C280.571 473.74 280.381 474.56 280.381 475.5C280.381 476.44 280.571 477.25 280.961 477.96C281.351 478.67 281.881 479.23 282.561 479.64C283.241 480.05 284.021 480.25 284.891 480.25Z" fill="#FF9058"/>
</g>
<defs>
<clipPath id="clip0_966_2448">
<rect width="305" height="489" fill="white"/>
</clipPath>
</defs>
</svg>
