<svg width="14" height="26" viewBox="0 0 14 26" fill="none" xmlns="http://www.w3.org/2000/svg">
<path d="M11.4985 21.2896C12.1711 20.3849 12.5682 19.2696 12.5682 18.0632C12.5682 15.0401 10.0752 12.5895 7 12.5895C3.92478 12.5895 1.43182 15.0401 1.43182 18.0632C1.43182 19.3565 1.88814 20.5451 2.65116 21.4819C1.88877 20.8719 1.1659 20.0191 0.597275 18.8288C0.164363 17.9244 -1.05565 14.5852 2.0928 10.2371C5.56521 5.54983 5.65586 1.62635 5.5558 0.257346C5.54073 0.0512122 5.77945 -0.0761977 5.94414 0.0505592C6.39905 0.40061 6.79555 0.8111 7.1344 1.2504C8.43746 2.93967 9.02851 5.01849 9.02851 7.03793C9.02851 8.25094 9.15536 9.247 9.37286 9.82288C9.91746 11.2647 10.8743 10.6249 10.7169 8.10379C10.7037 7.89149 10.9549 7.76735 11.1164 7.90742C11.6563 8.37563 12.5895 9.4659 13.3485 11.8025C13.9389 13.646 14.0569 15.1069 13.9782 16.1505C13.8197 18.6852 12.7364 20.284 11.4985 21.2896Z" fill="black"/>
<path fill-rule="evenodd" clip-rule="evenodd" d="M8.11324 24.5754C10.894 21.0551 11.5252 20.256 11.5252 18.0632C11.5252 15.6015 9.49523 13.606 6.99112 13.606C4.48701 13.606 2.45703 15.6015 2.45703 18.0632C2.45703 20.2512 2.99125 20.9281 5.81949 24.5113C6.17304 24.9593 6.56244 25.4526 6.99112 26C7.39931 25.4792 7.77242 25.0069 8.11324 24.5754ZM6.99112 19.7835C8.26514 19.7835 9.29794 18.7682 9.29794 17.5158C9.29794 16.2634 8.26514 15.2481 6.99112 15.2481C5.7171 15.2481 4.6843 16.2634 4.6843 17.5158C4.6843 18.7682 5.7171 19.7835 6.99112 19.7835Z" fill="black"/>
</svg>
